<svg width="24" height="24" viewBox="0 0 24 24" fill="none" xmlns="http://www.w3.org/2000/svg">
<rect width="24" height="24" rx="12" fill="#1F1F1F"/>
<path d="M6.6665 11.2503C6.25229 11.2503 5.9165 11.5861 5.9165 12.0003C5.9165 12.4145 6.25229 12.7503 6.6665 12.7503L6.6665 11.2503ZM17.3332 12.7503C17.7474 12.7503 18.0832 12.4145 18.0832 12.0003C18.0832 11.5861 17.7474 11.2503 17.3332 11.2503V12.7503ZM15.1945 8.1343C14.9003 7.84272 14.4254 7.84484 14.1338 8.13903C13.8422 8.43323 13.8443 8.9081 14.1385 9.19968L15.1945 8.1343ZM15.8418 9.83186L15.3139 10.3646V10.3646L15.8418 9.83186ZM15.8418 14.1688L16.3698 14.7015H16.3698L15.8418 14.1688ZM14.1385 14.801C13.8443 15.0926 13.8422 15.5674 14.1338 15.8616C14.4254 16.1558 14.9003 16.1579 15.1945 15.8663L14.1385 14.801ZM17.3199 11.7914L18.0639 11.6966L18.0639 11.6966L17.3199 11.7914ZM17.3199 12.2092L18.0639 12.304V12.304L17.3199 12.2092ZM6.6665 12.7503L17.3332 12.7503V11.2503L6.6665 11.2503L6.6665 12.7503ZM14.1385 9.19968L15.3139 10.3646L16.3698 9.29917L15.1945 8.1343L14.1385 9.19968ZM15.3139 13.6361L14.1385 14.801L15.1945 15.8663L16.3698 14.7015L15.3139 13.6361ZM15.3139 10.3646C15.795 10.8415 16.1101 11.1553 16.3205 11.4173C16.5214 11.6675 16.5645 11.7967 16.5759 11.8863L18.0639 11.6966C18.0031 11.22 17.7758 10.8339 17.4901 10.4781C17.2138 10.1341 16.8259 9.75124 16.3698 9.29917L15.3139 10.3646ZM16.3698 14.7015C16.8259 14.2494 17.2138 13.8665 17.4901 13.5226C17.7758 13.1667 18.0031 12.7806 18.0639 12.304L16.5759 12.1144C16.5645 12.2039 16.5214 12.3331 16.3205 12.5833C16.1101 12.8453 15.795 13.1592 15.3139 13.6361L16.3698 14.7015ZM16.5759 11.8863C16.5856 11.962 16.5856 12.0386 16.5759 12.1144L18.0639 12.304C18.0896 12.1024 18.0896 11.8983 18.0639 11.6966L16.5759 11.8863Z" fill="white"/>
</svg>
