<svg width="24" height="25" viewBox="0 0 24 25" fill="none" xmlns="http://www.w3.org/2000/svg">
<path d="M8 17.675C7.58579 17.675 7.25 18.0108 7.25 18.425C7.25 18.8393 7.58579 19.175 8 19.175V17.675ZM16 19.175C16.4142 19.175 16.75 18.8393 16.75 18.425C16.75 18.0108 16.4142 17.675 16 17.675V19.175ZM8 13.675C7.58579 13.675 7.25 14.0108 7.25 14.425C7.25 14.8393 7.58579 15.175 8 15.175V13.675ZM11 15.175C11.4142 15.175 11.75 14.8393 11.75 14.425C11.75 14.0108 11.4142 13.675 11 13.675V15.175ZM8 9.67505C7.58579 9.67505 7.25 10.0108 7.25 10.425C7.25 10.8393 7.58579 11.175 8 11.175V9.67505ZM16 11.175C16.4142 11.175 16.75 10.8393 16.75 10.425C16.75 10.0108 16.4142 9.67505 16 9.67505V11.175ZM5.06107 21.4701L5.50191 20.8634L5.06107 21.4701ZM3.95491 20.364L4.56168 19.9231L3.95491 20.364ZM20.0451 20.364L19.4383 19.9231L20.0451 20.364ZM18.9389 21.4701L18.4981 20.8634L18.9389 21.4701ZM18.9389 3.37996L19.3798 2.7732L18.9389 3.37996ZM20.0451 4.48612L19.4383 4.92696L20.0451 4.48612ZM5.06107 3.37996L5.50191 3.98673L5.06107 3.37996ZM3.95491 4.48612L4.56168 4.92696L3.95491 4.48612ZM13.1461 7.02036L13.2635 7.76112L13.1461 7.02036ZM11.5818 7.02036L11.4645 7.76112L11.5818 7.02036ZM8 19.175H16V17.675H8V19.175ZM8 15.175H11V13.675H8V15.175ZM8 11.175H16V9.67505H8V11.175ZM20.25 11.425V13.425H21.75V11.425H20.25ZM3.75 13.425V11.425H2.25V13.425H3.75ZM12 21.675C10.1084 21.675 8.74999 21.674 7.69804 21.56C6.66013 21.4476 6.00992 21.2325 5.50191 20.8634L4.62023 22.0769C5.42656 22.6627 6.37094 22.925 7.53648 23.0513C8.68798 23.1761 10.1418 23.175 12 23.175V21.675ZM2.25 13.425C2.25 15.2832 2.24897 16.7371 2.37373 17.8886C2.50001 19.0541 2.76232 19.9985 3.34815 20.8048L4.56168 19.9231C4.19259 19.4151 3.97745 18.7649 3.865 17.727C3.75103 16.6751 3.75 15.3166 3.75 13.425H2.25ZM5.50191 20.8634C5.14111 20.6012 4.82382 20.2839 4.56168 19.9231L3.34815 20.8048C3.70281 21.293 4.13209 21.7222 4.62023 22.0769L5.50191 20.8634ZM20.25 13.425C20.25 15.3166 20.249 16.6751 20.135 17.727C20.0225 18.7649 19.8074 19.4151 19.4383 19.9231L20.6518 20.8048C21.2377 19.9985 21.5 19.0541 21.6263 17.8886C21.751 16.7371 21.75 15.2832 21.75 13.425H20.25ZM12 23.175C13.8582 23.175 15.312 23.1761 16.4635 23.0513C17.6291 22.925 18.5734 22.6627 19.3798 22.0769L18.4981 20.8634C17.9901 21.2325 17.3399 21.4476 16.302 21.56C15.25 21.674 13.8916 21.675 12 21.675V23.175ZM19.4383 19.9231C19.1762 20.2839 18.8589 20.6012 18.4981 20.8634L19.3798 22.0769C19.8679 21.7222 20.2972 21.293 20.6518 20.8048L19.4383 19.9231ZM21.75 11.425C21.75 9.56689 21.751 8.11302 21.6263 6.96152C21.5 5.79599 21.2377 4.85161 20.6518 4.04528L19.4383 4.92696C19.8074 5.43497 20.0225 6.08518 20.135 7.12309C20.249 8.17504 20.25 9.53348 20.25 11.425H21.75ZM18.4981 3.98673C18.8589 4.24887 19.1762 4.56616 19.4383 4.92696L20.6518 4.04528C20.2972 3.55714 19.8679 3.12786 19.3798 2.7732L18.4981 3.98673ZM3.75 11.425C3.75 9.53348 3.75103 8.17504 3.865 7.12309C3.97745 6.08518 4.19259 5.43497 4.56168 4.92696L3.34815 4.04528C2.76232 4.85161 2.50001 5.79599 2.37373 6.96152C2.24897 8.11302 2.25 9.56689 2.25 11.425H3.75ZM4.62023 2.7732C4.13209 3.12786 3.70281 3.55714 3.34815 4.04528L4.56168 4.92696C4.82382 4.56616 5.14111 4.24886 5.50191 3.98673L4.62023 2.7732ZM13.0288 6.27959C12.5883 6.34936 12.1396 6.34936 11.6991 6.27959L11.4645 7.76112C12.0604 7.85551 12.6675 7.85551 13.2635 7.76112L13.0288 6.27959ZM17.9103 2.54588C16.6701 3.7852 15.7663 4.67511 14.9856 5.28995C14.2161 5.89599 13.6262 6.18498 13.0288 6.27959L13.2635 7.76112C14.2116 7.61095 15.0379 7.15806 15.9137 6.46838C16.7783 5.7875 17.7488 4.82782 18.9706 3.60692L17.9103 2.54588ZM12 3.17505C13.6617 3.17505 14.9149 3.17558 15.9149 3.25416C16.9124 3.33255 17.5844 3.48468 18.1028 3.74608L18.7782 2.40673C18.0049 2.01677 17.107 1.84322 16.0324 1.75877C14.9603 1.67452 13.6391 1.67505 12 1.67505V3.17505ZM18.1028 3.74608C18.2431 3.81685 18.374 3.89655 18.4981 3.98673L19.3798 2.7732C19.1892 2.63472 18.9892 2.51314 18.7782 2.40673L18.1028 3.74608ZM5.5419 3.39158C6.83246 4.68208 7.84545 5.69347 8.73841 6.40816C9.64243 7.13171 10.489 7.60663 11.4645 7.76112L11.6991 6.27959C11.0846 6.18226 10.4781 5.87929 9.67572 5.23707C8.86225 4.586 7.91543 3.64373 6.60254 2.33089L5.5419 3.39158ZM12 1.67505C10.5637 1.67505 9.37369 1.67478 8.38484 1.73077C7.39671 1.78672 6.55633 1.90081 5.82759 2.15225L6.31685 3.57022C6.85227 3.38548 7.53187 3.28147 8.46964 3.22837C9.40668 3.17532 10.5485 3.17505 12 3.17505V1.67505ZM5.82759 2.15225C5.38699 2.30428 4.98789 2.50608 4.62023 2.7732L5.50191 3.98673C5.73848 3.81485 6.00284 3.67857 6.31685 3.57022L5.82759 2.15225Z" fill="#1F1F1F"/>
</svg>
