<svg width="24" height="25" viewBox="0 0 24 25" fill="none" xmlns="http://www.w3.org/2000/svg">
<path d="M5.06107 20.4701L4.62023 21.0769L5.06107 20.4701ZM3.95491 19.364L3.34815 19.8048H3.34815L3.95491 19.364ZM20.0451 19.364L19.4383 18.9231L20.0451 19.364ZM18.9389 20.4701L18.4981 19.8634L18.9389 20.4701ZM18.9389 4.37996L18.4981 4.98673L18.9389 4.37996ZM20.0451 5.48612L19.4383 5.92696L20.0451 5.48612ZM5.06107 4.37996L5.50191 4.98673L5.06107 4.37996ZM3.95491 5.48612L4.56168 5.92696L3.95491 5.48612ZM5.00344 20.2575L4.25408 20.2267L4.25344 20.2421V20.2575H5.00344ZM18.9905 20.1476L19.7401 20.122L19.7396 20.1091L19.7388 20.0963L18.9905 20.1476ZM15.25 9.42505C15.25 11.22 13.7949 12.675 12 12.675V14.175C14.6234 14.175 16.75 12.0484 16.75 9.42505H15.25ZM12 12.675C10.2051 12.675 8.75 11.22 8.75 9.42505H7.25C7.25 12.0484 9.37665 14.175 12 14.175V12.675ZM8.75 9.42505C8.75 7.63012 10.2051 6.17505 12 6.17505V4.67505C9.37665 4.67505 7.25 6.8017 7.25 9.42505H8.75ZM12 6.17505C13.7949 6.17505 15.25 7.63012 15.25 9.42505H16.75C16.75 6.8017 14.6234 4.67505 12 4.67505V6.17505ZM12 20.675C10.1084 20.675 8.74999 20.674 7.69804 20.56C6.66013 20.4476 6.00992 20.2325 5.50191 19.8634L4.62023 21.0769C5.42656 21.6627 6.37094 21.925 7.53648 22.0513C8.68798 22.1761 10.1418 22.175 12 22.175V20.675ZM2.25 12.425C2.25 14.2832 2.24897 15.7371 2.37373 16.8886C2.50001 18.0541 2.76232 18.9985 3.34815 19.8048L4.56168 18.9231C4.19259 18.4151 3.97745 17.7649 3.865 16.727C3.75103 15.6751 3.75 14.3166 3.75 12.425H2.25ZM20.25 12.425C20.25 14.3166 20.249 15.6751 20.135 16.727C20.0225 17.7649 19.8074 18.4151 19.4383 18.9231L20.6518 19.8048C21.2377 18.9985 21.5 18.0541 21.6263 16.8886C21.751 15.7371 21.75 14.2832 21.75 12.425H20.25ZM12 22.175C13.8582 22.175 15.312 22.1761 16.4635 22.0513C17.6291 21.925 18.5734 21.6627 19.3798 21.0769L18.4981 19.8634C17.9901 20.2325 17.3399 20.4476 16.302 20.56C15.25 20.674 13.8916 20.675 12 20.675V22.175ZM12 4.17505C13.8916 4.17505 15.25 4.17608 16.302 4.29005C17.3399 4.4025 17.9901 4.61764 18.4981 4.98673L19.3798 3.7732C18.5734 3.18737 17.6291 2.92505 16.4635 2.79878C15.312 2.67402 13.8582 2.67505 12 2.67505V4.17505ZM21.75 12.425C21.75 10.5669 21.751 9.11302 21.6263 7.96152C21.5 6.79599 21.2377 5.85161 20.6518 5.04528L19.4383 5.92696C19.8074 6.43497 20.0225 7.08518 20.135 8.12309C20.249 9.17504 20.25 10.5335 20.25 12.425H21.75ZM18.4981 4.98673C18.8589 5.24887 19.1762 5.56616 19.4383 5.92696L20.6518 5.04528C20.2972 4.55714 19.8679 4.12786 19.3798 3.7732L18.4981 4.98673ZM12 2.67505C10.1418 2.67505 8.68798 2.67402 7.53648 2.79878C6.37094 2.92505 5.42656 3.18737 4.62023 3.7732L5.50191 4.98673C6.00992 4.61764 6.66013 4.4025 7.69804 4.29005C8.74999 4.17608 10.1084 4.17505 12 4.17505V2.67505ZM3.75 12.425C3.75 10.5335 3.75103 9.17504 3.865 8.12309C3.97745 7.08518 4.19259 6.43497 4.56168 5.92696L3.34815 5.04528C2.76232 5.85161 2.50001 6.79599 2.37373 7.96152C2.24897 9.11302 2.25 10.5669 2.25 12.425H3.75ZM4.62023 3.7732C4.13209 4.12786 3.70281 4.55714 3.34815 5.04528L4.56168 5.92696C4.82382 5.56616 5.14111 5.24886 5.50191 4.98673L4.62023 3.7732ZM9 17.175H15V15.675H9V17.175ZM9 15.675C6.4431 15.675 4.35837 17.695 4.25408 20.2267L5.75281 20.2884C5.82413 18.5572 7.25085 17.175 9 17.175V15.675ZM5.50191 19.8634C5.4855 19.8514 5.46917 19.8394 5.45293 19.8272L4.55396 21.028C4.57592 21.0445 4.59801 21.0608 4.62023 21.0769L5.50191 19.8634ZM5.45293 19.8272C5.11235 19.5723 4.81189 19.2675 4.56168 18.9231L3.34815 19.8048C3.68667 20.2707 4.09317 20.683 4.55396 21.028L5.45293 19.8272ZM4.25344 20.2575V20.4276H5.75344V20.2575H4.25344ZM15 17.175C16.7188 17.175 18.1265 18.5098 18.2423 20.1988L19.7388 20.0963C19.5695 17.6259 17.5129 15.675 15 15.675V17.175ZM19.4383 18.9231C19.1888 19.2665 18.8894 19.5705 18.55 19.825L19.45 21.025C19.9092 20.6807 20.3143 20.2694 20.6518 19.8048L19.4383 18.9231ZM18.55 19.825C18.5328 19.838 18.5155 19.8507 18.4981 19.8634L19.3798 21.0769C19.4033 21.0598 19.4267 21.0425 19.45 21.025L18.55 19.825ZM18.241 20.1731L18.2504 20.4506L19.7496 20.3995L19.7401 20.122L18.241 20.1731Z" fill="#1F1F1F"/>
</svg>
