<svg width="24" height="25" viewBox="0 0 24 25" fill="none" xmlns="http://www.w3.org/2000/svg">
<g clip-path="url(#clip0_41_19114)">
<path d="M18.4702 18.8074L18.5715 18.0643L18.4702 18.8074ZM5.52979 18.8074L5.42846 18.0643L5.52979 18.8074ZM4.04348 2.87174L4.17764 3.60964L4.04348 2.87174ZM19.9565 2.87174L19.8224 3.60964L19.9565 2.87174ZM7.8181 22.6975C7.41625 22.798 7.17193 23.2052 7.27239 23.607C7.37285 24.0088 7.78006 24.2532 8.1819 24.1527L7.8181 22.6975ZM9.57465 23.0314L9.39274 22.3038L9.57465 23.0314ZM14.4254 23.0314L14.6073 22.3038L14.4254 23.0314ZM15.8181 24.1527C16.2199 24.2532 16.6271 24.0088 16.7276 23.607C16.8281 23.2052 16.5837 22.798 16.1819 22.6975L15.8181 24.1527ZM12 22.7329V23.4829V22.7329ZM22.25 6.51847V14.8534H23.75V6.51847H22.25ZM1.75 14.8534V6.51847H0.25V14.8534H1.75ZM4.17764 3.60964C9.35015 2.66918 14.6499 2.66918 19.8224 3.60964L20.0907 2.13383C14.7407 1.16112 9.25925 1.16112 3.90932 2.13383L4.17764 3.60964ZM0.25 14.8534C0.25 17.7261 2.78473 19.9387 5.63113 19.5505L5.42846 18.0643C3.4827 18.3296 1.75 16.8171 1.75 14.8534H0.25ZM22.25 14.8534C22.25 16.8171 20.5173 18.3296 18.5715 18.0643L18.3689 19.5505C21.2153 19.9387 23.75 17.7261 23.75 14.8534H22.25ZM23.75 6.51847C23.75 4.3647 22.2097 2.51911 20.0907 2.13383L19.8224 3.60964C21.2282 3.86524 22.25 5.08963 22.25 6.51847H23.75ZM1.75 6.51847C1.75 5.08963 2.77185 3.86524 4.17764 3.60964L3.90932 2.13383C1.79028 2.51911 0.25 4.3647 0.25 6.51847H1.75ZM8.1819 24.1527L9.75655 23.759L9.39274 22.3038L7.8181 22.6975L8.1819 24.1527ZM14.2435 23.759L15.8181 24.1527L16.1819 22.6975L14.6073 22.3038L14.2435 23.759ZM12.75 22.4251V19.4251H11.25V22.4251H12.75ZM18.5715 18.0643C16.3911 17.7669 14.1956 17.6183 12 17.6183V19.1183C14.1278 19.1183 16.2557 19.2624 18.3689 19.5505L18.5715 18.0643ZM12 17.6183C9.80444 17.6183 7.60888 17.7669 5.42846 18.0643L5.63113 19.5505C7.74431 19.2624 9.87215 19.1183 12 19.1183V17.6183ZM12.75 19.4251V18.3683H11.25V19.4251H12.75ZM9.75655 23.759C10.493 23.5749 11.2465 23.4829 12 23.4829V21.9829C11.1243 21.9829 10.2487 22.0898 9.39274 22.3038L9.75655 23.759ZM12 23.4829C12.7535 23.4829 13.507 23.5749 14.2435 23.759L14.6073 22.3038C13.7513 22.0898 12.8757 21.9829 12 21.9829V23.4829ZM11.25 22.4251V22.7329H12.75V22.4251H11.25Z" fill="#1F1F1F"/>
</g>
<defs>
<clipPath id="clip0_41_19114">
<rect width="24" height="24" fill="white" transform="translate(0 0.425049)"/>
</clipPath>
</defs>
</svg>
