<svg width="102" height="28" viewBox="0 0 102 28" fill="none" xmlns="http://www.w3.org/2000/svg">
<g clip-path="url(#clip0_424_2427)">
<path d="M102 0H0V28H102V0Z" fill="white"/>
<path d="M10.584 19.84C9.25599 19.84 8.04 19.664 6.936 19.312C5.832 18.96 4.872 18.464 4.056 17.824C3.256 17.168 2.632 16.4 2.184 15.52C1.752 14.64 1.536 13.672 1.536 12.616C1.536 11.56 1.752 10.6 2.184 9.736C2.632 8.856 3.256 8.096 4.056 7.456C4.872 6.8 5.832 6.296 6.936 5.944C8.04 5.592 9.25599 5.416 10.584 5.416C11.912 5.416 13.128 5.592 14.232 5.944C15.336 6.296 16.288 6.8 17.088 7.456C17.904 8.096 18.528 8.856 18.96 9.736C19.408 10.6 19.632 11.56 19.632 12.616C19.632 13.672 19.408 14.64 18.96 15.52C18.528 16.4 17.904 17.168 17.088 17.824C16.288 18.464 15.336 18.96 14.232 19.312C13.128 19.664 11.912 19.84 10.584 19.84ZM10.584 17.824C11.88 17.824 13.024 17.608 14.016 17.176C15.024 16.744 15.808 16.136 16.368 15.352C16.944 14.568 17.232 13.656 17.232 12.616C17.232 11.576 16.944 10.672 16.368 9.904C15.808 9.12 15.024 8.512 14.016 8.08C13.024 7.648 11.88 7.432 10.584 7.432C9.28799 7.432 8.136 7.648 7.128 8.08C6.136 8.512 5.352 9.12 4.776 9.904C4.216 10.672 3.936 11.576 3.936 12.616C3.936 13.656 4.216 14.568 4.776 15.352C5.352 16.136 6.136 16.744 7.128 17.176C8.136 17.608 9.28799 17.824 10.584 17.824ZM10.632 22C10.28 22 9.984 21.88 9.744 21.64C9.504 21.4 9.384 21.104 9.384 20.752V19.384L9.50399 18.376V6.952L9.384 6.208V4.504C9.384 4.136 9.504 3.84 9.744 3.616C9.984 3.376 10.28 3.256 10.632 3.256C11 3.256 11.296 3.376 11.52 3.616C11.76 3.84 11.88 4.136 11.88 4.504V6.232L11.76 6.952V18.376L11.88 19.192V20.752C11.88 21.104 11.76 21.4 11.52 21.64C11.296 21.88 11 22 10.632 22ZM28.7726 22.096C27.6046 22.096 26.5566 21.808 25.6286 21.232C24.7006 20.64 23.9646 19.848 23.4206 18.856C22.8926 17.848 22.6286 16.712 22.6286 15.448C22.6286 14.184 22.9166 13.048 23.4926 12.04C24.0846 11.032 24.8766 10.24 25.8686 9.664C26.8766 9.072 28.0046 8.776 29.2526 8.776C30.5006 8.776 31.6206 9.072 32.6126 9.664C33.6046 10.24 34.3886 11.032 34.9646 12.04C35.5566 13.048 35.8526 14.184 35.8526 15.448H34.9166C34.9166 16.712 34.6446 17.848 34.1006 18.856C33.5726 19.848 32.8446 20.64 31.9166 21.232C30.9886 21.808 29.9406 22.096 28.7726 22.096ZM29.2526 19.936C30.0686 19.936 30.7966 19.744 31.4366 19.36C32.0766 18.96 32.5806 18.424 32.9486 17.752C33.3166 17.064 33.5006 16.296 33.5006 15.448C33.5006 14.584 33.3166 13.816 32.9486 13.144C32.5806 12.456 32.0766 11.92 31.4366 11.536C30.7966 11.136 30.0686 10.936 29.2526 10.936C28.4526 10.936 27.7246 11.136 27.0686 11.536C26.4286 11.92 25.9166 12.456 25.5326 13.144C25.1646 13.816 24.9806 14.584 24.9806 15.448C24.9806 16.296 25.1646 17.064 25.5326 17.752C25.9166 18.424 26.4286 18.96 27.0686 19.36C27.7246 19.744 28.4526 19.936 29.2526 19.936ZM34.6286 22.024C34.2766 22.024 33.9806 21.912 33.7406 21.688C33.5166 21.448 33.4046 21.152 33.4046 20.8V17.128L33.8606 14.584L35.8526 15.448V20.8C35.8526 21.152 35.7326 21.448 35.4926 21.688C35.2686 21.912 34.9806 22.024 34.6286 22.024ZM45.4959 22.096C44.2159 22.096 43.0799 21.832 42.0879 21.304C41.0959 20.776 40.3199 20.048 39.7599 19.12C39.1999 18.176 38.9119 17.104 38.8959 15.904H40.0719C40.0719 14.688 40.3199 13.624 40.8159 12.712C41.3279 11.784 42.0239 11.056 42.9039 10.528C43.7999 10 44.8239 9.736 45.9759 9.736C47.1279 9.736 48.1439 10 49.0239 10.528C49.9199 11.056 50.6159 11.784 51.1119 12.712C51.6239 13.624 51.8799 14.688 51.8799 15.904C51.8799 17.104 51.6079 18.176 51.0639 19.12C50.5199 20.048 49.7679 20.776 48.8079 21.304C47.8479 21.832 46.7439 22.096 45.4959 22.096ZM45.4959 19.936C46.2959 19.936 46.9919 19.768 47.5839 19.432C48.1919 19.08 48.6639 18.6 48.9999 17.992C49.3519 17.384 49.5279 16.688 49.5279 15.904C49.5279 15.12 49.3519 14.432 48.9999 13.84C48.6639 13.232 48.1919 12.76 47.5839 12.424C46.9919 12.072 46.2959 11.896 45.4959 11.896C44.6639 11.896 43.9279 12.072 43.2879 12.424C42.6479 12.76 42.1439 13.232 41.7759 13.84C41.4239 14.432 41.2479 15.12 41.2479 15.904C41.2479 16.688 41.4239 17.384 41.7759 17.992C42.1439 18.6 42.6479 19.08 43.2879 19.432C43.9279 19.768 44.6639 19.936 45.4959 19.936ZM38.8959 15.904L38.9199 13.192C38.9359 11.304 39.4559 9.576 40.4799 8.008C41.5199 6.44 43.1279 5.168 45.3039 4.192L49.7919 2.2C50.1119 2.072 50.3999 2.056 50.6559 2.152C50.9119 2.232 51.0959 2.416 51.2079 2.704C51.3199 3.008 51.3439 3.288 51.2799 3.544C51.2319 3.784 50.9999 4 50.5839 4.192L45.7119 6.424C44.5919 6.936 43.6719 7.544 42.9519 8.248C42.2319 8.952 41.6959 9.744 41.3439 10.624C41.0079 11.488 40.8239 12.424 40.7919 13.432L40.7439 15.904H38.8959ZM54.5126 27.76C54.2246 27.76 53.9286 27.72 53.6246 27.64C53.3366 27.56 53.0486 27.44 52.7606 27.28C52.4086 27.072 52.1766 26.816 52.0646 26.512C51.9526 26.208 52.0006 25.912 52.2086 25.624C52.4006 25.352 52.6326 25.184 52.9046 25.12C53.1766 25.056 53.4646 25.112 53.7686 25.288C53.9446 25.384 54.1046 25.456 54.2486 25.504C54.4086 25.552 54.5686 25.576 54.7286 25.576C55.2406 25.576 55.7286 25.312 56.1926 24.784C56.6726 24.256 57.1446 23.472 57.6086 22.432L63.3446 9.472C63.4886 9.152 63.7046 8.936 63.9926 8.824C64.2966 8.712 64.6006 8.728 64.9046 8.872C65.1766 8.984 65.3526 9.192 65.4326 9.496C65.5126 9.784 65.4726 10.096 65.3126 10.432L59.5286 23.392C58.9526 24.688 58.2166 25.736 57.3206 26.536C56.4406 27.352 55.5046 27.76 54.5126 27.76ZM59.9846 21.472C59.6806 21.6 59.3926 21.616 59.1206 21.52C58.8646 21.408 58.6566 21.2 58.4966 20.896L53.0006 10.456C52.8406 10.152 52.8166 9.864 52.9286 9.592C53.0566 9.304 53.2726 9.096 53.5766 8.968C53.8806 8.84 54.1606 8.832 54.4166 8.944C54.6886 9.04 54.9046 9.24 55.0646 9.544L60.3446 19.888C60.5046 20.192 60.5606 20.504 60.5126 20.824C60.4646 21.128 60.2886 21.344 59.9846 21.472ZM72.8691 8.896C73.1091 8.896 73.3251 8.96 73.5171 9.088C73.7091 9.216 73.8611 9.416 73.9731 9.688L78.9171 20.416C79.0611 20.736 79.0771 21.024 78.9651 21.28C78.8531 21.52 78.6611 21.704 78.3891 21.832C78.0371 21.992 77.7331 22.032 77.4771 21.952C77.2211 21.872 77.0051 21.672 76.8291 21.352L72.3171 11.104H73.5411L68.8851 21.352C68.7411 21.656 68.5251 21.856 68.2371 21.952C67.9651 22.032 67.6611 21.992 67.3251 21.832C67.0211 21.688 66.8051 21.496 66.6771 21.256C66.5651 21.016 66.5891 20.736 66.7491 20.416L71.7171 9.688C71.9571 9.16 72.3411 8.896 72.8691 8.896ZM87.507 22.096C86.339 22.096 85.291 21.808 84.363 21.232C83.435 20.64 82.699 19.848 82.155 18.856C81.627 17.848 81.363 16.712 81.363 15.448C81.363 14.184 81.651 13.048 82.227 12.04C82.819 11.032 83.611 10.24 84.603 9.664C85.611 9.072 86.739 8.776 87.987 8.776C89.235 8.776 90.355 9.072 91.347 9.664C92.339 10.24 93.123 11.032 93.699 12.04C94.291 13.048 94.587 14.184 94.587 15.448H93.651C93.651 16.712 93.379 17.848 92.835 18.856C92.307 19.848 91.579 20.64 90.651 21.232C89.723 21.808 88.675 22.096 87.507 22.096ZM87.987 19.936C88.803 19.936 89.531 19.744 90.171 19.36C90.811 18.96 91.315 18.424 91.683 17.752C92.051 17.064 92.235 16.296 92.235 15.448C92.235 14.584 92.051 13.816 91.683 13.144C91.315 12.456 90.811 11.92 90.171 11.536C89.531 11.136 88.803 10.936 87.987 10.936C87.187 10.936 86.459 11.136 85.803 11.536C85.163 11.92 84.651 12.456 84.267 13.144C83.899 13.816 83.715 14.584 83.715 15.448C83.715 16.296 83.899 17.064 84.267 17.752C84.651 18.424 85.163 18.96 85.803 19.36C86.459 19.744 87.187 19.936 87.987 19.936ZM93.363 22.024C93.011 22.024 92.715 21.912 92.475 21.688C92.251 21.448 92.139 21.152 92.139 20.8V17.128L92.595 14.584L94.587 15.448V20.8C94.587 21.152 94.467 21.448 94.227 21.688C94.003 21.912 93.715 22.024 93.363 22.024ZM98.9263 22.384C98.4783 22.384 98.0863 22.224 97.7503 21.904C97.4303 21.568 97.2703 21.176 97.2703 20.728C97.2703 20.264 97.4303 19.872 97.7503 19.552C98.0863 19.216 98.4783 19.048 98.9263 19.048C99.3903 19.048 99.7823 19.216 100.102 19.552C100.422 19.872 100.582 20.264 100.582 20.728C100.582 21.176 100.422 21.568 100.102 21.904C99.7823 22.224 99.3903 22.384 98.9263 22.384Z" fill="#1F1F1F"/>
<path d="M4.056 17.824L3.73889 18.2107L3.74743 18.2174L4.056 17.824ZM2.184 15.52L1.73512 15.7404L1.73842 15.7468L2.184 15.52ZM2.184 9.736L1.73841 9.50915L1.73679 9.51239L2.184 9.736ZM4.056 7.456L4.36835 7.84644L4.36928 7.84569L4.056 7.456ZM17.088 7.456L16.7709 7.84272L16.7794 7.84943L17.088 7.456ZM18.96 9.736L18.5111 9.95639L18.5161 9.96616L18.96 9.736ZM18.96 15.52L18.5144 15.2931L18.5112 15.2997L18.96 15.52ZM17.088 17.824L17.4003 18.2144L17.4013 18.2137L17.088 17.824ZM14.016 17.176L13.819 16.7164L13.8164 16.7176L14.016 17.176ZM16.368 15.352L15.965 15.0559L15.9611 15.0614L16.368 15.352ZM16.368 9.904L15.961 10.1947L15.968 10.204L16.368 9.904ZM14.016 8.08L13.8164 8.53842L13.819 8.53957L14.016 8.08ZM7.128 8.08L6.93104 7.62042L6.92837 7.62158L7.128 8.08ZM4.776 9.904L4.37306 9.60796L4.372 9.60941L4.776 9.904ZM4.776 15.352L4.3691 15.6426L4.37306 15.648L4.776 15.352ZM7.128 17.176L6.92836 17.6344L6.93104 17.6356L7.128 17.176ZM9.384 19.384L8.88751 19.3249L8.884 19.3543V19.384H9.384ZM9.50399 18.376L10.0005 18.4351L10.004 18.4057V18.376H9.50399ZM9.50399 6.952H10.004V6.91194L9.99761 6.87238L9.50399 6.952ZM9.384 6.208H8.884V6.24806L8.89038 6.28761L9.384 6.208ZM9.744 3.616L10.0852 3.98153L10.0915 3.97565L10.0976 3.96955L9.744 3.616ZM11.52 3.616L11.1545 3.95716L11.1662 3.96976L11.1788 3.98153L11.52 3.616ZM11.88 6.232L12.3732 6.3142L12.38 6.27338V6.232H11.88ZM11.76 6.952L11.2668 6.8698L11.26 6.91062V6.952H11.76ZM11.76 18.376H11.26V18.4126L11.2653 18.4487L11.76 18.376ZM11.88 19.192H12.38V19.1554L12.3747 19.1193L11.88 19.192ZM11.52 21.64L11.1664 21.2864L11.1604 21.2925L11.1545 21.2988L11.52 21.64ZM10.584 19.34C9.30015 19.34 8.13621 19.1699 7.08789 18.8356L6.78411 19.7884C7.9438 20.1581 9.21183 20.34 10.584 20.34V19.34ZM7.08789 18.8356C6.03402 18.4996 5.12853 18.0298 4.36457 17.4306L3.74743 18.2174C4.61547 18.8982 5.62998 19.4204 6.78411 19.7884L7.08789 18.8356ZM4.37304 17.4374C3.62387 16.823 3.04474 16.1087 2.62958 15.2932L1.73842 15.7468C2.21926 16.6913 2.88806 17.5131 3.73889 18.2107L4.37304 17.4374ZM2.63283 15.2997C2.23705 14.4934 2.036 13.6016 2.036 12.616H1.036C1.036 13.7424 1.2669 14.7867 1.73512 15.7404L2.63283 15.2997ZM2.036 12.616C2.036 11.6303 2.23708 10.7479 2.63121 9.95961L1.73679 9.51239C1.26692 10.4521 1.036 11.4897 1.036 12.616H2.036ZM2.62958 9.96284C3.04409 9.14862 3.62175 8.44372 4.36835 7.84644L3.74365 7.06557C2.89025 7.74829 2.2199 8.56337 1.73841 9.50915L2.62958 9.96284ZM4.36928 7.84569C5.13242 7.23219 6.03631 6.75566 7.08789 6.42037L6.78411 5.46763C5.62769 5.83634 4.61159 6.36781 3.74272 7.06631L4.36928 7.84569ZM7.08789 6.42037C8.13621 6.08612 9.30015 5.916 10.584 5.916V4.916C9.21183 4.916 7.9438 5.09787 6.78411 5.46763L7.08789 6.42037ZM10.584 5.916C11.8678 5.916 13.0318 6.08612 14.0801 6.42037L14.3839 5.46763C13.2242 5.09787 11.9562 4.916 10.584 4.916V5.916ZM14.0801 6.42037C15.1311 6.75547 16.0253 7.23134 16.7709 7.84272L17.405 7.06937C16.5506 6.36875 15.5409 5.83653 14.3839 5.46763L14.0801 6.42037ZM16.7794 7.84943C17.5398 8.44576 18.1141 9.14779 18.5111 9.95639L19.4088 9.51566C18.9418 8.56426 18.2682 7.74624 17.3966 7.06257L16.7794 7.84943ZM18.5161 9.96616C18.9242 10.7531 19.132 11.6331 19.132 12.616H20.132C20.132 11.4869 19.8918 10.4469 19.4039 9.50584L18.5161 9.96616ZM19.132 12.616C19.132 13.5988 18.9242 14.4882 18.5144 15.2931L19.4056 15.7468C19.8918 14.7917 20.132 13.7452 20.132 12.616H19.132ZM18.5112 15.2997C18.1136 16.1096 17.5376 16.821 16.7747 17.4343L17.4013 18.2137C18.2704 17.515 18.9424 16.6904 19.4088 15.7403L18.5112 15.2997ZM16.7757 17.4336C16.0293 18.0307 15.1334 18.4998 14.0801 18.8356L14.3839 19.7884C15.5386 19.4202 16.5467 18.8973 17.4003 18.2144L16.7757 17.4336ZM14.0801 18.8356C13.0318 19.1699 11.8678 19.34 10.584 19.34V20.34C11.9562 20.34 13.2242 20.1581 14.3839 19.7884L14.0801 18.8356ZM10.584 18.324C11.9354 18.324 13.1495 18.0987 14.2156 17.6344L13.8164 16.7176C12.8985 17.1173 11.8246 17.324 10.584 17.324V18.324ZM14.213 17.6356C15.2932 17.1726 16.1546 16.5109 16.7749 15.6426L15.9611 15.0614C15.4614 15.7611 14.7548 16.3154 13.819 16.7164L14.213 17.6356ZM16.7709 15.648C17.4145 14.7721 17.732 13.7547 17.732 12.616H16.732C16.732 13.5573 16.4734 14.3638 15.965 15.0559L16.7709 15.648ZM17.732 12.616C17.732 11.4774 17.4144 10.4659 16.768 9.604L15.968 10.204C16.4736 10.8781 16.732 11.6746 16.732 12.616H17.732ZM16.7749 9.61338C16.1546 8.74505 15.2932 8.08338 14.213 7.62043L13.819 8.53957C14.7548 8.94062 15.4613 9.49504 15.961 10.1947L16.7749 9.61338ZM14.2156 7.62158C13.1495 7.15729 11.9354 6.932 10.584 6.932V7.932C11.8246 7.932 12.8985 8.13871 13.8164 8.53842L14.2156 7.62158ZM10.584 6.932C9.2324 6.932 8.01153 7.15735 6.93104 7.62042L7.32496 8.53957C8.26047 8.13864 9.34359 7.932 10.584 7.932V6.932ZM6.92837 7.62158C5.86475 8.08477 5.00701 8.74509 4.37306 9.60796L5.17894 10.2C5.69699 9.49491 6.40725 8.93923 7.32763 8.53842L6.92837 7.62158ZM4.372 9.60941C3.7437 10.4711 3.436 11.4806 3.436 12.616H4.436C4.436 11.6714 4.6883 10.8729 5.18 10.1986L4.372 9.60941ZM3.436 12.616C3.436 13.7515 3.74365 14.767 4.3691 15.6426L5.18287 15.0614C4.68832 14.369 4.436 13.5605 4.436 12.616H3.436ZM4.37306 15.648C5.00701 16.5109 5.86474 17.1712 6.92836 17.6344L7.32763 16.7176C6.40725 16.3168 5.69699 15.7611 5.17894 15.056L4.37306 15.648ZM6.93104 17.6356C8.01153 18.0986 9.2324 18.324 10.584 18.324V17.324C9.34359 17.324 8.26047 17.1174 7.32496 16.7164L6.93104 17.6356ZM10.632 21.5C10.4071 21.5 10.24 21.4289 10.0976 21.2864L9.39044 21.9936C9.72802 22.3311 10.1529 22.5 10.632 22.5V21.5ZM10.0976 21.2864C9.95514 21.144 9.884 20.9769 9.884 20.752H8.884C8.884 21.2311 9.05287 21.656 9.39044 21.9936L10.0976 21.2864ZM9.884 20.752V19.384H8.884V20.752H9.884ZM9.88049 19.4431L10.0005 18.4351L9.00751 18.3169L8.88751 19.3249L9.88049 19.4431ZM10.004 18.376V6.952H9.00399V18.376H10.004ZM9.99761 6.87238L9.87761 6.12838L8.89038 6.28761L9.01038 7.03162L9.99761 6.87238ZM9.884 6.208V4.504H8.884V6.208H9.884ZM9.884 4.504C9.884 4.25607 9.95927 4.09903 10.0852 3.98153L9.40283 3.25047C9.04873 3.58097 8.884 4.01593 8.884 4.504H9.884ZM10.0976 3.96955C10.24 3.82713 10.4071 3.756 10.632 3.756V2.756C10.1529 2.756 9.72802 2.92486 9.39044 3.26245L10.0976 3.96955ZM10.632 3.756C10.8799 3.756 11.037 3.83127 11.1545 3.95716L11.8855 3.27484C11.555 2.92073 11.1201 2.756 10.632 2.756V3.756ZM11.1788 3.98153C11.3047 4.09903 11.38 4.25607 11.38 4.504H12.38C12.38 4.01593 12.2153 3.58097 11.8612 3.25047L11.1788 3.98153ZM11.38 4.504V6.232H12.38V4.504H11.38ZM11.3868 6.1498L11.2668 6.8698L12.2532 7.0342L12.3732 6.3142L11.3868 6.1498ZM11.26 6.952V18.376H12.26V6.952H11.26ZM11.2653 18.4487L11.3853 19.2647L12.3747 19.1193L12.2547 18.3033L11.2653 18.4487ZM11.38 19.192V20.752H12.38V19.192H11.38ZM11.38 20.752C11.38 20.9769 11.3089 21.144 11.1664 21.2864L11.8736 21.9936C12.2111 21.656 12.38 21.2311 12.38 20.752H11.38ZM11.1545 21.2988C11.037 21.4247 10.8799 21.5 10.632 21.5V22.5C11.1201 22.5 11.555 22.3353 11.8855 21.9812L11.1545 21.2988ZM25.6286 21.232L25.3597 21.6536L25.3649 21.6568L25.6286 21.232ZM23.4206 18.856L22.9776 19.088L22.9822 19.0964L23.4206 18.856ZM23.4926 12.04L23.0615 11.7868L23.0585 11.7919L23.4926 12.04ZM25.8686 9.664L26.1197 10.0964L26.1218 10.0951L25.8686 9.664ZM32.6126 9.664L32.3564 10.0934L32.3616 10.0964L32.6126 9.664ZM34.9646 12.04L34.5305 12.2881L34.5335 12.2932L34.9646 12.04ZM35.8526 15.448V15.948H36.3526V15.448H35.8526ZM34.9166 15.448V14.948H34.4166V15.448H34.9166ZM34.1006 18.856L33.6606 18.6185L33.6593 18.6211L34.1006 18.856ZM31.9166 21.232L32.1803 21.6569L32.1855 21.6535L31.9166 21.232ZM31.4366 19.36L31.6939 19.7888L31.7016 19.784L31.4366 19.36ZM32.9486 17.752L33.3872 17.9922L33.3895 17.9878L32.9486 17.752ZM32.9486 13.144L32.5077 13.3798L32.5101 13.3842L32.9486 13.144ZM31.4366 11.536L31.1716 11.9601L31.1794 11.9647L31.4366 11.536ZM27.0686 11.536L27.3259 11.9648L27.3289 11.9629L27.0686 11.536ZM25.5326 13.144L25.096 12.9003L25.0941 12.9038L25.5326 13.144ZM25.5326 17.752L25.0916 17.9879L25.0985 18.0001L25.5326 17.752ZM27.0686 19.36L26.8036 19.784L26.8098 19.7878L26.816 19.7915L27.0686 19.36ZM33.7406 21.688L33.3751 22.0292L33.3869 22.0418L33.3995 22.0535L33.7406 21.688ZM33.4046 17.128L32.9125 17.0398L32.9046 17.0835V17.128H33.4046ZM33.8606 14.584L34.0596 14.1253L33.4799 13.8739L33.3685 14.4958L33.8606 14.584ZM35.8526 15.448H36.3526V15.1199L36.0516 14.9893L35.8526 15.448ZM28.7726 21.596C27.6911 21.596 26.7356 21.3306 25.8923 20.8072L25.3649 21.6568C26.3777 22.2854 27.5182 22.596 28.7726 22.596V21.596ZM25.8975 20.8105C25.0424 20.2649 24.3638 19.5361 23.859 18.6156L22.9822 19.0964C23.5654 20.1599 24.3589 21.0152 25.3597 21.6536L25.8975 20.8105ZM23.8635 18.624C23.377 17.6952 23.1286 16.6403 23.1286 15.448H22.1286C22.1286 16.7837 22.4081 18.0008 22.9776 19.088L23.8635 18.624ZM23.1286 15.448C23.1286 14.2631 23.3977 13.2139 23.9267 12.2881L23.0585 11.7919C22.4356 12.8821 22.1286 14.1049 22.1286 15.448H23.1286ZM23.9238 12.2932C24.473 11.358 25.2036 10.6283 26.1197 10.0964L25.6176 9.23161C24.5496 9.85169 23.6962 10.706 23.0615 11.7868L23.9238 12.2932ZM26.1218 10.0951C27.0479 9.55129 28.0874 9.276 29.2526 9.276V8.276C27.9218 8.276 26.7054 8.59271 25.6154 9.23286L26.1218 10.0951ZM29.2526 9.276C30.4179 9.276 31.4481 9.55129 32.3564 10.0934L32.8689 9.23464C31.7932 8.59271 30.5833 8.276 29.2526 8.276V9.276ZM32.3616 10.0964C33.2764 10.6276 33.9977 11.3556 34.5305 12.2881L35.3987 11.7919C34.7796 10.7084 33.9328 9.8524 32.8637 9.23161L32.3616 10.0964ZM34.5335 12.2932C35.0768 13.2182 35.3526 14.2655 35.3526 15.448H36.3526C36.3526 14.1025 36.0365 12.8778 35.3958 11.7868L34.5335 12.2932ZM35.8526 14.948H34.9166V15.948H35.8526V14.948ZM34.4166 15.448C34.4166 16.6379 34.1613 17.6908 33.6606 18.6185L34.5406 19.0935C35.128 18.0052 35.4166 16.7861 35.4166 15.448H34.4166ZM33.6593 18.6211C33.1708 19.5387 32.5015 20.2658 31.6477 20.8105L32.1855 21.6535C33.1877 21.0142 33.9744 20.1573 34.542 19.0909L33.6593 18.6211ZM31.6529 20.8072C30.8097 21.3306 29.8542 21.596 28.7726 21.596V22.596C30.0271 22.596 31.1676 22.2855 32.1803 21.6569L31.6529 20.8072ZM29.2526 20.436C30.1505 20.436 30.969 20.2238 31.6939 19.7888L31.1794 18.9313C30.6242 19.2643 29.9867 19.436 29.2526 19.436V20.436ZM31.7016 19.784C32.4154 19.3379 32.9787 18.7381 33.3872 17.9922L32.5101 17.5118C32.1826 18.1099 31.7378 18.5821 31.1716 18.936L31.7016 19.784ZM33.3895 17.9878C33.7996 17.2211 34.0006 16.371 34.0006 15.448H33.0006C33.0006 16.221 32.8336 16.9069 32.5077 17.5162L33.3895 17.9878ZM34.0006 15.448C34.0006 14.5109 33.8004 13.6585 33.3872 12.9038L32.5101 13.3842C32.8328 13.9735 33.0006 14.6571 33.0006 15.448H34.0006ZM33.3895 12.9082C32.9809 12.1442 32.415 11.5399 31.6939 11.1073L31.1794 11.9647C31.7382 12.3001 32.1804 12.7678 32.5077 13.3798L33.3895 12.9082ZM31.7016 11.112C30.9757 10.6583 30.1544 10.436 29.2526 10.436V11.436C29.9828 11.436 30.6175 11.6138 31.1716 11.9601L31.7016 11.112ZM29.2526 10.436C28.3648 10.436 27.546 10.6593 26.8083 11.1091L27.3289 11.9629C27.9032 11.6127 28.5405 11.436 29.2526 11.436V10.436ZM26.8114 11.1073C26.0922 11.5387 25.5202 12.1404 25.096 12.9003L25.9692 13.3877C26.3131 12.7716 26.765 12.3014 27.3259 11.9648L26.8114 11.1073ZM25.0941 12.9038C24.6808 13.6585 24.4806 14.5109 24.4806 15.448H25.4806C25.4806 14.6571 25.6484 13.9735 25.9712 13.3842L25.0941 12.9038ZM24.4806 15.448C24.4806 16.371 24.6815 17.2212 25.0916 17.9879L25.9735 17.5162C25.6476 16.9069 25.4806 16.221 25.4806 15.448H24.4806ZM25.0985 18.0001C25.5224 18.7419 26.0917 19.3391 26.8036 19.784L27.3336 18.936C26.7655 18.5809 26.3109 18.1061 25.9667 17.5039L25.0985 18.0001ZM26.816 19.7915C27.5527 20.2227 28.3687 20.436 29.2526 20.436V19.436C28.5366 19.436 27.8965 19.2653 27.3212 18.9285L26.816 19.7915ZM34.6286 21.524C34.3933 21.524 34.2221 21.4535 34.0818 21.3225L33.3995 22.0535C33.7391 22.3705 34.16 22.524 34.6286 22.524V21.524ZM34.1062 21.3468C33.9752 21.2065 33.9046 21.0354 33.9046 20.8H32.9046C32.9046 21.2686 33.0581 21.6895 33.3751 22.0292L34.1062 21.3468ZM33.9046 20.8V17.128H32.9046V20.8H33.9046ZM33.8968 17.2162L34.3528 14.6722L33.3685 14.4958L32.9125 17.0398L33.8968 17.2162ZM33.6617 15.0427L35.6537 15.9067L36.0516 14.9893L34.0596 14.1253L33.6617 15.0427ZM35.3526 15.448V20.8H36.3526V15.448H35.3526ZM35.3526 20.8C35.3526 21.0249 35.2815 21.192 35.1391 21.3344L35.8462 22.0416C36.1838 21.704 36.3526 21.2791 36.3526 20.8H35.3526ZM35.1391 21.3344C35.0197 21.4538 34.8642 21.524 34.6286 21.524V22.524C35.0971 22.524 35.5176 22.3702 35.8462 22.0416L35.1391 21.3344ZM39.7599 19.12L39.3299 19.3751L39.3318 19.3783L39.7599 19.12ZM38.8959 15.904V15.404H38.3892L38.396 15.9107L38.8959 15.904ZM40.0719 15.904V16.404H40.5719V15.904H40.0719ZM40.8159 12.712L40.3781 12.4705L40.3767 12.4731L40.8159 12.712ZM42.9039 10.528L42.6501 10.0972L42.6467 10.0993L42.9039 10.528ZM49.0239 10.528L48.7667 10.9568L48.7701 10.9588L49.0239 10.528ZM51.1119 12.712L50.6709 12.9477L50.6759 12.9568L51.1119 12.712ZM51.0639 19.12L51.4953 19.3729L51.4972 19.3696L51.0639 19.12ZM47.5839 19.432L47.8307 19.8669L47.8345 19.8647L47.5839 19.432ZM48.9999 17.992L48.5671 17.7414L48.5623 17.7502L48.9999 17.992ZM48.9999 13.84L48.5623 14.0818L48.5661 14.0888L48.5702 14.0955L48.9999 13.84ZM47.5839 12.424L47.3284 12.8538L47.3352 12.8578L47.3421 12.8616L47.5839 12.424ZM43.2879 12.424L43.5204 12.8668L43.5289 12.8621L43.2879 12.424ZM41.7759 13.84L41.3482 13.5811L41.3462 13.5845L41.7759 13.84ZM41.7759 17.992L41.3431 18.2426L41.3482 18.2509L41.7759 17.992ZM43.2879 19.432L43.0469 19.8702L43.0555 19.8747L43.2879 19.432ZM38.8959 15.904L38.396 15.8996L38.3915 16.404H38.8959V15.904ZM40.4799 8.008L40.0632 7.73162L40.0613 7.73461L40.4799 8.008ZM45.3039 4.192L45.1011 3.73499L45.0993 3.73579L45.3039 4.192ZM49.7919 2.2L49.6062 1.73576L49.5976 1.73922L49.5891 1.74299L49.7919 2.2ZM50.6559 2.152L50.4804 2.62016L50.4935 2.62507L50.5068 2.62924L50.6559 2.152ZM51.2079 2.704L51.6772 2.53112L51.6739 2.52278L51.2079 2.704ZM51.2799 3.544L50.7949 3.42273L50.792 3.43427L50.7896 3.44594L51.2799 3.544ZM50.5839 4.192L50.7922 4.64657L50.7935 4.64598L50.5839 4.192ZM41.3439 10.624L40.8797 10.4383L40.8779 10.4428L41.3439 10.624ZM40.7919 13.432L40.2922 13.4161L40.292 13.4223L40.7919 13.432ZM40.7439 15.904V16.404H41.2343L41.2438 15.9137L40.7439 15.904ZM45.4959 21.596C44.2864 21.596 43.233 21.3471 42.3229 20.8626L41.853 21.7454C42.9269 22.3169 44.1455 22.596 45.4959 22.596V21.596ZM42.3229 20.8626C41.4075 20.3754 40.6996 19.7094 40.188 18.8617L39.3318 19.3783C39.9403 20.3866 40.7843 21.1766 41.853 21.7454L42.3229 20.8626ZM40.19 18.8649C39.6787 18.0031 39.4108 17.0182 39.3959 15.8973L38.396 15.9107C38.413 17.1898 38.7212 18.3489 39.3299 19.3751L40.19 18.8649ZM38.8959 16.404H40.0719V15.404H38.8959V16.404ZM40.5719 15.904C40.5719 14.7571 40.8054 13.7779 41.2552 12.9509L40.3767 12.4731C39.8345 13.4701 39.5719 14.6189 39.5719 15.904H40.5719ZM41.2537 12.9535C41.7246 12.1001 42.3594 11.4378 43.1612 10.9567L42.6467 10.0993C41.6885 10.6742 40.9313 11.4679 40.3781 12.4705L41.2537 12.9535ZM43.1578 10.9588C43.9688 10.4809 44.9033 10.236 45.9759 10.236V9.236C44.7445 9.236 43.6311 9.51914 42.6501 10.0972L43.1578 10.9588ZM45.9759 10.236C47.0487 10.236 47.9736 10.481 48.7667 10.9568L49.2812 10.0993C48.3143 9.5191 47.2072 9.236 45.9759 9.236V10.236ZM48.7701 10.9588C49.586 11.4396 50.2176 12.0997 50.6709 12.9477L51.5529 12.4763C51.0142 11.4683 50.2539 10.6724 49.2778 10.0972L48.7701 10.9588ZM50.6759 12.9568C51.1396 13.7826 51.3799 14.7597 51.3799 15.904H52.3799C52.3799 14.6163 52.1083 13.4654 51.5479 12.4672L50.6759 12.9568ZM51.3799 15.904C51.3799 17.0255 51.1266 18.0098 50.6307 18.8704L51.4972 19.3696C52.0892 18.3422 52.3799 17.1825 52.3799 15.904H51.3799ZM50.6326 18.8671C50.1351 19.7159 49.4495 20.3805 48.567 20.8659L49.0489 21.7421C50.0864 21.1715 50.9048 20.3801 51.4953 19.3729L50.6326 18.8671ZM48.567 20.8659C47.6905 21.3479 46.6716 21.596 45.4959 21.596V22.596C46.8163 22.596 48.0053 22.3161 49.0489 21.7421L48.567 20.8659ZM45.4959 20.436C46.3672 20.436 47.1513 20.2526 47.8307 19.8669L47.3371 18.9972C46.8326 19.2835 46.2247 19.436 45.4959 19.436V20.436ZM47.8345 19.8647C48.52 19.4678 49.0571 18.9222 49.4376 18.2338L48.5623 17.7502C48.2707 18.2778 47.8638 18.6922 47.3334 18.9993L47.8345 19.8647ZM49.4327 18.2425C49.8337 17.5498 50.0279 16.7655 50.0279 15.904H49.0279C49.0279 16.6105 48.8701 17.2181 48.5671 17.7414L49.4327 18.2425ZM50.0279 15.904C50.0279 15.0427 49.8338 14.264 49.4297 13.5845L48.5702 14.0955C48.8701 14.6 49.0279 15.1973 49.0279 15.904H50.0279ZM49.4376 13.5982C49.056 12.9078 48.5162 12.3679 47.8258 11.9864L47.3421 12.8616C47.8677 13.1521 48.2718 13.5562 48.5623 14.0818L49.4376 13.5982ZM47.8395 11.9942C47.1584 11.5893 46.3712 11.396 45.4959 11.396V12.396C46.2207 12.396 46.8255 12.5547 47.3284 12.8538L47.8395 11.9942ZM45.4959 11.396C44.5916 11.396 43.7705 11.5879 43.047 11.9859L43.5289 12.8621C44.0853 12.5561 44.7363 12.396 45.4959 12.396V11.396ZM43.0555 11.9813C42.3363 12.3589 41.7642 12.8938 41.3482 13.5811L42.2037 14.0989C42.5237 13.5702 42.9595 13.1612 43.5204 12.8668L43.0555 11.9813ZM41.3462 13.5845C40.9421 14.264 40.7479 15.0427 40.7479 15.904H41.7479C41.7479 15.1973 41.9058 14.6 42.2057 14.0955L41.3462 13.5845ZM40.7479 15.904C40.7479 16.7655 40.9421 17.5499 41.3431 18.2426L42.2087 17.7415C41.9057 17.2182 41.7479 16.6105 41.7479 15.904H40.7479ZM41.3482 18.2509C41.7629 18.9361 42.3322 19.4771 43.0469 19.8702L43.5289 18.9939C42.9636 18.683 42.5249 18.2639 42.2037 17.7331L41.3482 18.2509ZM43.0555 19.8747C43.7774 20.2537 44.5953 20.436 45.4959 20.436V19.436C44.7326 19.436 44.0785 19.2823 43.5204 18.9893L43.0555 19.8747ZM39.3959 15.9084L39.4199 13.1964L38.42 13.1876L38.396 15.8996L39.3959 15.9084ZM39.4199 13.1964C39.4351 11.4033 39.9273 9.76861 40.8986 8.28139L40.0613 7.73461C38.9845 9.38339 38.4368 11.2047 38.42 13.1876L39.4199 13.1964ZM40.8966 8.28437C41.872 6.81373 43.3959 5.59578 45.5086 4.64821L45.0993 3.73579C42.8599 4.74022 41.1677 6.06626 40.0632 7.73162L40.8966 8.28437ZM45.5068 4.64901L49.9948 2.65701L49.5891 1.74299L45.1011 3.73499L45.5068 4.64901ZM49.9776 2.66424C50.2132 2.57 50.3692 2.57848 50.4804 2.62016L50.8315 1.68384C50.4307 1.53352 50.0106 1.574 49.6062 1.73576L49.9776 2.66424ZM50.5068 2.62924C50.5945 2.65665 50.6756 2.71467 50.7419 2.88522L51.6739 2.52278C51.5163 2.11732 51.2294 1.80735 50.8051 1.67476L50.5068 2.62924ZM50.7388 2.87685C50.824 3.1083 50.8295 3.28437 50.7949 3.42273L51.765 3.66527C51.8584 3.29163 51.8159 2.90767 51.6772 2.53112L50.7388 2.87685ZM50.7896 3.44594C50.7915 3.43656 50.7911 3.46243 50.7292 3.52005C50.6651 3.57976 50.5538 3.65524 50.3744 3.73802L50.7935 4.64598C51.2353 4.44207 51.6719 4.13378 51.7702 3.64206L50.7896 3.44594ZM50.3757 3.73743L45.5037 5.96943L45.9198 6.87874L50.7922 4.64657L50.3757 3.73743ZM45.5037 5.96943C44.3425 6.50026 43.3717 7.13829 42.6024 7.8905L43.3015 8.6055C43.9722 7.94971 44.841 7.37191 45.9198 6.87874L45.5037 5.96943ZM42.6024 7.8905C41.8358 8.64007 41.2591 9.48969 40.8797 10.4383L41.8082 10.8097C42.1327 9.9983 42.6281 9.26393 43.3015 8.6055L42.6024 7.8905ZM40.8779 10.4428C40.5197 11.364 40.3258 12.3565 40.2922 13.4161L41.2917 13.4479C41.322 12.4915 41.4962 11.612 41.8099 10.8052L40.8779 10.4428ZM40.292 13.4223L40.244 15.8943L41.2438 15.9137L41.2918 13.4417L40.292 13.4223ZM40.7439 15.404H38.8959V16.404H40.7439V15.404ZM53.6246 27.64L53.4908 28.1218L53.4974 28.1235L53.6246 27.64ZM52.7606 27.28L52.5062 27.7106L52.5178 27.7171L52.7606 27.28ZM52.2086 25.624L52.614 25.9168L52.6171 25.9123L52.2086 25.624ZM53.7686 25.288L53.518 25.7209L53.5292 25.7269L53.7686 25.288ZM54.2486 25.504L54.0905 25.9783L54.0977 25.9807L54.105 25.9829L54.2486 25.504ZM56.1926 24.784L55.8226 24.4476L55.817 24.4539L56.1926 24.784ZM57.6086 22.432L58.0652 22.6357L58.0658 22.6344L57.6086 22.432ZM63.3446 9.472L62.8887 9.26681L62.8874 9.26964L63.3446 9.472ZM63.9926 8.824L63.8197 8.35475L63.8114 8.358L63.9926 8.824ZM64.9046 8.872L64.6906 9.32387L64.7023 9.32941L64.7142 9.33434L64.9046 8.872ZM65.4326 9.496L64.949 9.62326L64.9509 9.62982L65.4326 9.496ZM65.3126 10.432L64.8611 10.217L64.856 10.2282L65.3126 10.432ZM57.3206 26.536L56.9876 26.163L56.9807 26.1694L57.3206 26.536ZM59.1206 21.52L58.9202 21.9781L58.937 21.9854L58.9542 21.9915L59.1206 21.52ZM52.9286 9.592L52.4715 9.38885L52.4663 9.40162L52.9286 9.592ZM54.4166 8.944L54.2162 9.40208L54.233 9.40941L54.2502 9.41549L54.4166 8.944ZM55.0646 9.544L55.51 9.31666L55.5071 9.31113L55.0646 9.544ZM60.3446 19.888L59.8993 20.1153L59.9022 20.1209L60.3446 19.888ZM60.5126 20.824L61.0065 20.902L61.0071 20.8982L60.5126 20.824ZM54.5126 27.26C54.2713 27.26 54.0181 27.2265 53.7519 27.1565L53.4974 28.1235C53.8392 28.2135 54.178 28.26 54.5126 28.26V27.26ZM53.7584 27.1582C53.5121 27.0898 53.2605 26.9857 53.0034 26.8429L52.5178 27.7171C52.8368 27.8943 53.1612 28.0302 53.4908 28.1218L53.7584 27.1582ZM53.015 26.8495C52.7356 26.6844 52.5965 26.5093 52.5338 26.3391L51.5955 26.6849C51.7568 27.1227 52.0816 27.4597 52.5062 27.7106L53.015 26.8495ZM52.5338 26.3391C52.4856 26.2083 52.4923 26.0853 52.614 25.9168L51.8033 25.3313C51.5089 25.7388 51.4197 26.2077 51.5955 26.6849L52.5338 26.3391ZM52.6171 25.9123C52.7529 25.72 52.8881 25.6376 53.0191 25.6067L52.7901 24.6333C52.3772 24.7304 52.0484 24.984 51.8001 25.3357L52.6171 25.9123ZM53.0191 25.6067C53.1373 25.5789 53.2947 25.5916 53.518 25.7209L54.0191 24.8553C53.6344 24.6326 53.216 24.5331 52.7901 24.6333L53.0191 25.6067ZM53.5292 25.7269C53.7235 25.8329 53.9111 25.9186 54.0905 25.9783L54.4067 25.0297C54.2981 24.9934 54.1658 24.9351 54.0081 24.8491L53.5292 25.7269ZM54.105 25.9829C54.3095 26.0443 54.5179 26.076 54.7286 26.076V25.076C54.6194 25.076 54.5078 25.0597 54.3923 25.0251L54.105 25.9829ZM54.7286 26.076C55.4323 26.076 56.0462 25.708 56.5682 25.1141L55.817 24.4539C55.411 24.916 55.049 25.076 54.7286 25.076V26.076ZM56.5626 25.1203C57.0931 24.5367 57.5909 23.699 58.0652 22.6357L57.152 22.2283C56.6984 23.245 56.252 23.9752 55.8226 24.4476L56.5626 25.1203ZM58.0658 22.6344L63.8018 9.67436L62.8874 9.26964L57.1514 22.2296L58.0658 22.6344ZM63.8006 9.67718C63.8987 9.45918 64.025 9.34789 64.1738 9.29L63.8114 8.358C63.3843 8.5241 63.0786 8.8448 62.8887 9.26681L63.8006 9.67718ZM64.1655 9.29317C64.3381 9.22957 64.5028 9.23491 64.6906 9.32387L65.1187 8.42013C64.6985 8.22109 64.255 8.19435 63.8197 8.35475L64.1655 9.29317ZM64.7142 9.33434C64.8303 9.38211 64.9057 9.45862 64.949 9.62326L65.9162 9.36875C65.7995 8.92539 65.523 8.58589 65.095 8.40966L64.7142 9.33434ZM64.9509 9.62982C64.9913 9.77527 64.9824 9.96222 64.8611 10.217L65.7641 10.647C65.9627 10.2298 66.034 9.79272 65.9144 9.36218L64.9509 9.62982ZM64.856 10.2282L59.072 23.1882L59.9852 23.5958L65.7692 10.6358L64.856 10.2282ZM59.072 23.1882C58.5197 24.431 57.8221 25.418 56.9876 26.163L57.6536 26.909C58.6112 26.054 59.3856 24.945 59.9852 23.5958L59.072 23.1882ZM56.9807 26.1694C56.1726 26.9186 55.3532 27.26 54.5126 27.26V28.26C55.6561 28.26 56.7086 27.7854 57.6606 26.9026L56.9807 26.1694ZM59.7906 21.0112C59.5836 21.0983 59.4249 21.0972 59.287 21.0485L58.9542 21.9915C59.3604 22.1348 59.7776 22.1017 60.1787 21.9328L59.7906 21.0112ZM59.321 21.0619C59.191 21.005 59.0587 20.8905 58.9391 20.6631L58.0542 21.1289C58.2545 21.5095 58.5382 21.811 58.9202 21.9781L59.321 21.0619ZM58.9391 20.6631L53.4431 10.2231L52.5582 10.6889L58.0542 21.1289L58.9391 20.6631ZM53.4431 10.2231C53.3392 10.0258 53.3451 9.89364 53.391 9.78237L52.4663 9.40162C52.2881 9.83436 52.342 10.2782 52.5582 10.6889L53.4431 10.2231ZM53.3855 9.79507C53.4593 9.62913 53.5778 9.51 53.7707 9.42882L53.3826 8.50718C52.9674 8.682 52.6538 8.97879 52.4715 9.38885L53.3855 9.79507ZM53.7707 9.42882C53.9731 9.34359 54.1084 9.3549 54.2162 9.40208L54.617 8.48592C54.2129 8.3091 53.7882 8.33641 53.3826 8.50718L53.7707 9.42882ZM54.2502 9.41549C54.3814 9.46179 54.509 9.56177 54.6222 9.77687L55.5071 9.31113C55.3003 8.91823 54.9959 8.61821 54.583 8.4725L54.2502 9.41549ZM54.6193 9.77132L59.8993 20.1153L60.79 19.6607L55.51 9.31666L54.6193 9.77132ZM59.9022 20.1209C60.0158 20.3368 60.0494 20.5418 60.0182 20.7498L61.0071 20.8982C61.0719 20.4662 60.9934 20.0472 60.7871 19.6551L59.9022 20.1209ZM60.0187 20.746C60 20.8649 59.9489 20.9445 59.7906 21.0112L60.1787 21.9328C60.6283 21.7435 60.9293 21.3911 61.0065 20.902L60.0187 20.746ZM73.9731 9.688L73.5107 9.87837L73.5146 9.88791L73.519 9.89727L73.9731 9.688ZM78.9171 20.416L79.373 20.2108L79.3712 20.2067L78.9171 20.416ZM78.9651 21.28L79.4183 21.4915L79.4231 21.4804L78.9651 21.28ZM78.3891 21.832L78.596 22.2872L78.602 22.2844L78.3891 21.832ZM76.8291 21.352L76.3715 21.5535L76.3803 21.5736L76.391 21.593L76.8291 21.352ZM72.3171 11.104V10.604H71.5506L71.8595 11.3055L72.3171 11.104ZM73.5411 11.104L73.9963 11.3108L74.3174 10.604H73.5411V11.104ZM68.8851 21.352L69.337 21.5661L69.3403 21.5588L68.8851 21.352ZM68.2371 21.952L68.3781 22.4317L68.3867 22.4292L68.3952 22.4263L68.2371 21.952ZM67.3251 21.832L67.54 21.3806L67.5391 21.3801L67.3251 21.832ZM66.6771 21.256L66.224 21.4674L66.2296 21.4795L66.2359 21.4913L66.6771 21.256ZM66.7491 20.416L67.1963 20.6396L67.1996 20.6329L67.2028 20.6261L66.7491 20.416ZM71.7171 9.688L72.1708 9.89811L72.1722 9.8949L71.7171 9.688ZM72.8691 9.396C73.0145 9.396 73.1333 9.43306 73.2397 9.50402L73.7944 8.67197C73.5169 8.48694 73.2036 8.396 72.8691 8.396V9.396ZM73.2397 9.50402C73.3289 9.5635 73.4262 9.67315 73.5107 9.87837L74.4354 9.49763C74.2959 9.15885 74.0892 8.8685 73.7944 8.67197L73.2397 9.50402ZM73.519 9.89727L78.463 20.6253L79.3712 20.2067L74.4272 9.47873L73.519 9.89727ZM78.4611 20.6212C78.563 20.8477 78.5485 20.9847 78.507 21.0796L79.4231 21.4804C79.6056 21.0633 79.5591 20.6243 79.373 20.2108L78.4611 20.6212ZM78.512 21.0686C78.456 21.1884 78.3575 21.2942 78.1762 21.3796L78.602 22.2844C78.9646 22.1138 79.2502 21.8517 79.4183 21.4915L78.512 21.0686ZM78.1822 21.3768C77.8933 21.5081 77.7222 21.5047 77.6262 21.4748L77.3279 22.4292C77.744 22.5593 78.1808 22.4759 78.596 22.2872L78.1822 21.3768ZM77.6262 21.4748C77.5324 21.4454 77.4039 21.3596 77.2672 21.111L76.391 21.593C76.6062 21.9844 76.9098 22.2986 77.3279 22.4292L77.6262 21.4748ZM77.2867 21.1505L72.7747 10.9025L71.8595 11.3055L76.3715 21.5535L77.2867 21.1505ZM72.3171 11.604H73.5411V10.604H72.3171V11.604ZM73.0858 10.8972L68.4298 21.1452L69.3403 21.5588L73.9963 11.3108L73.0858 10.8972ZM68.4332 21.138C68.3406 21.3335 68.223 21.4296 68.0789 21.4777L68.3952 22.4263C68.8271 22.2824 69.1416 21.9786 69.337 21.5661L68.4332 21.138ZM68.096 21.4723C67.9751 21.5079 67.8004 21.5045 67.54 21.3806L67.1101 22.2834C67.5217 22.4795 67.9551 22.5561 68.3781 22.4317L68.096 21.4723ZM67.5391 21.3801C67.3087 21.271 67.1848 21.1455 67.1182 21.0207L66.2359 21.4913C66.4253 21.8465 66.7334 22.105 67.111 22.2839L67.5391 21.3801ZM67.1302 21.0446C67.1035 20.9875 67.0789 20.8743 67.1963 20.6396L66.3018 20.1924C66.0992 20.5977 66.0266 21.0445 66.224 21.4674L67.1302 21.0446ZM67.2028 20.6261L72.1708 9.89811L71.2634 9.47789L66.2954 20.2059L67.2028 20.6261ZM72.1722 9.8949C72.2638 9.69353 72.3675 9.57533 72.4683 9.50602C72.5662 9.43875 72.6923 9.396 72.8691 9.396V8.396C72.5179 8.396 72.1879 8.48525 71.9018 8.68198C71.6186 8.87667 71.4103 9.15447 71.2619 9.4811L72.1722 9.8949ZM84.363 21.232L84.0941 21.6536L84.0993 21.6568L84.363 21.232ZM82.155 18.856L81.712 19.088L81.7166 19.0964L82.155 18.856ZM82.227 12.04L81.7958 11.7868L81.7929 11.7919L82.227 12.04ZM84.603 9.664L84.8541 10.0964L84.8562 10.0951L84.603 9.664ZM91.347 9.664L91.0908 10.0934L91.0959 10.0964L91.347 9.664ZM93.699 12.04L93.2648 12.2881L93.2679 12.2932L93.699 12.04ZM94.587 15.448V15.948H95.087V15.448H94.587ZM93.651 15.448V14.948H93.151V15.448H93.651ZM92.835 18.856L92.395 18.6185L92.3936 18.6211L92.835 18.856ZM90.651 21.232L90.9147 21.6569L90.9199 21.6535L90.651 21.232ZM90.171 19.36L90.4283 19.7888L90.436 19.784L90.171 19.36ZM91.683 17.752L92.1216 17.9922L92.1239 17.9878L91.683 17.752ZM91.683 13.144L91.2421 13.3798L91.2445 13.3842L91.683 13.144ZM90.171 11.536L89.906 11.9601L89.9138 11.9647L90.171 11.536ZM85.803 11.536L86.0603 11.9648L86.0633 11.9629L85.803 11.536ZM84.267 13.144L83.8304 12.9003L83.8285 12.9038L84.267 13.144ZM84.267 17.752L83.8259 17.9879L83.8329 18.0001L84.267 17.752ZM85.803 19.36L85.538 19.784L85.5442 19.7878L85.5504 19.7915L85.803 19.36ZM92.475 21.688L92.1095 22.0292L92.1212 22.0418L92.1338 22.0535L92.475 21.688ZM92.139 17.128L91.6468 17.0398L91.639 17.0835V17.128H92.139ZM92.595 14.584L92.794 14.1253L92.2143 13.8739L92.1028 14.4958L92.595 14.584ZM94.587 15.448H95.087V15.1199L94.786 14.9893L94.587 15.448ZM87.507 21.596C86.4254 21.596 85.47 21.3306 84.6267 20.8072L84.0993 21.6568C85.112 22.2854 86.2526 22.596 87.507 22.596V21.596ZM84.6319 20.8105C83.7767 20.2649 83.0982 19.5361 82.5934 18.6156L81.7166 19.0964C82.2998 20.1599 83.0933 21.0152 84.0941 21.6536L84.6319 20.8105ZM82.5979 18.624C82.1114 17.6952 81.863 16.6403 81.863 15.448H80.863C80.863 16.7837 81.1425 18.0008 81.712 19.088L82.5979 18.624ZM81.863 15.448C81.863 14.2631 82.1321 13.2139 82.6611 12.2881L81.7929 11.7919C81.1699 12.8821 80.863 14.1049 80.863 15.448H81.863ZM82.6581 12.2932C83.2074 11.358 83.938 10.6283 84.8541 10.0964L84.3519 9.23161C83.284 9.85169 82.4305 10.706 81.7958 11.7868L82.6581 12.2932ZM84.8562 10.0951C85.7822 9.55129 86.8218 9.276 87.987 9.276V8.276C86.6562 8.276 85.4398 8.59271 84.3498 9.23286L84.8562 10.0951ZM87.987 9.276C89.1523 9.276 90.1824 9.55129 91.0908 10.0934L91.6032 9.23464C90.5276 8.59271 89.3177 8.276 87.987 8.276V9.276ZM91.0959 10.0964C92.0108 10.6276 92.7319 11.3556 93.2648 12.2881L94.1331 11.7919C93.514 10.7084 92.6672 9.8524 91.5981 9.23161L91.0959 10.0964ZM93.2679 12.2932C93.8111 13.2182 94.087 14.2655 94.087 15.448H95.087C95.087 14.1025 94.7709 12.8778 94.1301 11.7868L93.2679 12.2932ZM94.587 14.948H93.651V15.948H94.587V14.948ZM93.151 15.448C93.151 16.6379 92.8957 17.6908 92.395 18.6185L93.275 19.0935C93.8623 18.0052 94.151 16.7861 94.151 15.448H93.151ZM92.3936 18.6211C91.9052 19.5387 91.2359 20.2658 90.3821 20.8105L90.9199 21.6535C91.9221 21.0142 92.7088 20.1573 93.2764 19.0909L92.3936 18.6211ZM90.3873 20.8072C89.544 21.3306 88.5886 21.596 87.507 21.596V22.596C88.7614 22.596 89.902 22.2855 90.9147 21.6569L90.3873 20.8072ZM87.987 20.436C88.8849 20.436 89.7035 20.2238 90.4283 19.7888L89.9138 18.9313C89.3586 19.2643 88.7211 19.436 87.987 19.436V20.436ZM90.436 19.784C91.1498 19.3379 91.7132 18.7381 92.1216 17.9922L91.2445 17.5118C90.9169 18.1099 90.4722 18.5821 89.906 18.936L90.436 19.784ZM92.1239 17.9878C92.534 17.2211 92.735 16.371 92.735 15.448H91.735C91.735 16.221 91.568 16.9069 91.2421 17.5162L92.1239 17.9878ZM92.735 15.448C92.735 14.5109 92.5348 13.6585 92.1215 12.9038L91.2445 13.3842C91.5672 13.9735 91.735 14.6571 91.735 15.448H92.735ZM92.1239 12.9082C91.7153 12.1442 91.1494 11.5399 90.4282 11.1073L89.9138 11.9647C90.4726 12.3001 90.9147 12.7678 91.2421 13.3798L92.1239 12.9082ZM90.436 11.112C89.7101 10.6583 88.8888 10.436 87.987 10.436V11.436C88.7172 11.436 89.3519 11.6138 89.906 11.9601L90.436 11.112ZM87.987 10.436C87.0991 10.436 86.2804 10.6593 85.5427 11.1091L86.0633 11.9629C86.6376 11.6127 87.2749 11.436 87.987 11.436V10.436ZM85.5458 11.1073C84.8266 11.5387 84.2545 12.1404 83.8304 12.9003L84.7036 13.3877C85.0475 12.7716 85.4995 12.3014 86.0603 11.9648L85.5458 11.1073ZM83.8285 12.9038C83.4152 13.6585 83.215 14.5109 83.215 15.448H84.215C84.215 14.6571 84.3828 13.9735 84.7055 13.3842L83.8285 12.9038ZM83.215 15.448C83.215 16.371 83.4158 17.2212 83.8259 17.9879L84.7079 17.5162C84.382 16.9069 84.215 16.221 84.215 15.448H83.215ZM83.8329 18.0001C84.2568 18.7419 84.8261 19.3391 85.538 19.784L86.068 18.936C85.4999 18.5809 85.0452 18.1061 84.7011 17.5039L83.8329 18.0001ZM85.5504 19.7915C86.2871 20.2227 87.1031 20.436 87.987 20.436V19.436C87.2709 19.436 86.6309 19.2653 86.0556 18.9285L85.5504 19.7915ZM93.363 21.524C93.1276 21.524 92.9565 21.4535 92.8162 21.3225L92.1338 22.0535C92.4735 22.3705 92.8944 22.524 93.363 22.524V21.524ZM92.8405 21.3468C92.7095 21.2065 92.639 21.0354 92.639 20.8H91.639C91.639 21.2686 91.7925 21.6895 92.1095 22.0292L92.8405 21.3468ZM92.639 20.8V17.128H91.639V20.8H92.639ZM92.6312 17.2162L93.0872 14.6722L92.1028 14.4958L91.6468 17.0398L92.6312 17.2162ZM92.396 15.0427L94.388 15.9067L94.786 14.9893L92.794 14.1253L92.396 15.0427ZM94.087 15.448V20.8H95.087V15.448H94.087ZM94.087 20.8C94.087 21.0249 94.0159 21.192 93.8734 21.3344L94.5806 22.0416C94.9181 21.704 95.087 21.2791 95.087 20.8H94.087ZM93.8734 21.3344C93.754 21.4538 93.5985 21.524 93.363 21.524V22.524C93.8315 22.524 94.252 22.3702 94.5806 22.0416L93.8734 21.3344ZM97.7503 21.904L97.3882 22.2488L97.3967 22.2577L97.4055 22.2661L97.7503 21.904ZM100.102 19.552L99.7401 19.8969L99.7488 19.9056L100.102 19.552ZM100.102 21.904L100.456 22.2577L100.464 22.2488L100.102 21.904ZM98.9263 21.884C98.6117 21.884 98.3419 21.7769 98.0951 21.5419L97.4055 22.2661C97.8308 22.6711 98.3449 22.884 98.9263 22.884V21.884ZM98.1124 21.5592C97.8774 21.3125 97.7703 21.0426 97.7703 20.728H96.7703C96.7703 21.3094 96.9832 21.8235 97.3882 22.2488L98.1124 21.5592ZM97.7703 20.728C97.7703 20.3929 97.8803 20.1292 98.1039 19.9056L97.3968 19.1984C96.9804 19.6148 96.7703 20.1351 96.7703 20.728H97.7703ZM98.1039 19.9056C98.3524 19.657 98.6196 19.548 98.9263 19.548V18.548C98.337 18.548 97.8202 18.775 97.3968 19.1984L98.1039 19.9056ZM98.9263 19.548C99.2535 19.548 99.5145 19.66 99.7401 19.8969L100.464 19.2072C100.05 18.7721 99.5272 18.548 98.9263 18.548V19.548ZM99.7488 19.9056C99.9724 20.1292 100.082 20.3929 100.082 20.728H101.082C101.082 20.1351 100.872 19.6148 100.456 19.1984L99.7488 19.9056ZM100.082 20.728C100.082 21.0426 99.9752 21.3125 99.7402 21.5592L100.464 22.2488C100.869 21.8235 101.082 21.3094 101.082 20.728H100.082ZM99.7488 21.5504C99.5252 21.7741 99.2615 21.884 98.9263 21.884V22.884C99.5192 22.884 100.039 22.674 100.456 22.2577L99.7488 21.5504Z" fill="#1F1F1F"/>
</g>
<defs>
<clipPath id="clip0_424_2427">
<rect width="102" height="28" fill="white"/>
</clipPath>
</defs>
</svg>
