<svg width="24" height="25" viewBox="0 0 24 25" fill="none" xmlns="http://www.w3.org/2000/svg">
<path d="M22 10.425C22 7.62479 22 6.22466 21.455 5.1551C20.9757 4.21429 20.2108 3.44938 19.27 2.97002C18.2004 2.42505 16.8003 2.42505 14 2.42505H10C7.19974 2.42505 5.79961 2.42505 4.73005 2.97002C3.78924 3.44938 3.02433 4.21429 2.54497 5.1551C2 6.22466 2 7.62479 2 10.425V14.6534C2 16.7364 3.68863 18.425 5.77166 18.425H6.37341C7.15251 18.425 7.68525 19.2119 7.3959 19.9353C6.98743 20.9565 8.1635 21.8797 9.05848 21.2404L11.6692 19.3756C11.6958 19.3566 11.7092 19.3471 11.7222 19.3379C12.5562 18.7502 13.5501 18.4317 14.5703 18.4252C14.5863 18.425 14.6027 18.425 14.6354 18.425H15.1842C16.8734 18.425 17.7179 18.425 18.4069 18.223C20.041 17.7439 21.3188 16.466 21.798 14.8319C22 14.143 22 13.2984 22 11.6093V10.425Z" stroke="#1F1F1F" stroke-width="1.5"/>
<path d="M9 10.425C9 10.9773 8.55228 11.425 8 11.425C7.44772 11.425 7 10.9773 7 10.425C7 9.87276 7.44772 9.42505 8 9.42505C8.55228 9.42505 9 9.87276 9 10.425Z" fill="#1F1F1F"/>
<path d="M13 10.425C13 10.9773 12.5523 11.425 12 11.425C11.4477 11.425 11 10.9773 11 10.425C11 9.87276 11.4477 9.42505 12 9.42505C12.5523 9.42505 13 9.87276 13 10.425Z" fill="#1F1F1F"/>
<path d="M17 10.425C17 10.9773 16.5523 11.425 16 11.425C15.4477 11.425 15 10.9773 15 10.425C15 9.87276 15.4477 9.42505 16 9.42505C16.5523 9.42505 17 9.87276 17 10.425Z" fill="#1F1F1F"/>
</svg>
