<svg width="25" height="24" viewBox="0 0 25 24" fill="none" xmlns="http://www.w3.org/2000/svg">
<path d="M19.0172 12.7795L19.76 12.8829L19.0172 12.7795ZM18.7549 14.6645L19.4977 14.7679L18.7549 14.6645ZM6.24514 14.6645L6.98798 14.5611L6.24514 14.6645ZM5.9828 12.7795L5.23996 12.8829L5.9828 12.7795ZM9.68365 21.7368L9.39206 22.4278L9.68365 21.7368ZM6.97508 18.5603L7.67907 18.3017L6.97508 18.5603ZM18.0249 18.5603L18.7289 18.819V18.819L18.0249 18.5603ZM15.3164 21.7368L15.0248 21.0458H15.0248L15.3164 21.7368ZM6.24664 8.92906C6.20746 8.5167 5.84142 8.21418 5.42906 8.25336C5.0167 8.29254 4.71418 8.65858 4.75336 9.07094L6.24664 8.92906ZM20.2466 9.07094C20.2858 8.65858 19.9833 8.29254 19.5709 8.25336C19.1586 8.21418 18.7925 8.5167 18.7534 8.92906L20.2466 9.07094ZM20.5 7.75C20.9142 7.75 21.25 7.41421 21.25 7C21.25 6.58579 20.9142 6.25 20.5 6.25V7.75ZM4.5 6.25C4.08579 6.25 3.75 6.58579 3.75 7C3.75 7.41421 4.08579 7.75 4.5 7.75V6.25ZM16.5 7V7.75H17.25V7H16.5ZM8.5 7H7.75V7.75H8.5V7ZM18.2744 12.6761L18.012 14.5611L19.4977 14.7679L19.76 12.8829L18.2744 12.6761ZM6.98798 14.5611L6.72564 12.6761L5.23996 12.8829L5.5023 14.7679L6.98798 14.5611ZM12.5 21.25C10.9708 21.25 10.4254 21.2358 9.97524 21.0458L9.39206 22.4278C10.1891 22.7642 11.1056 22.75 12.5 22.75V21.25ZM5.5023 14.7679C5.782 16.7777 5.93406 17.9017 6.27109 18.819L7.67907 18.3017C7.41156 17.5736 7.27851 16.6488 6.98798 14.5611L5.5023 14.7679ZM9.97524 21.0458C9.05279 20.6566 8.19496 19.7058 7.67907 18.3017L6.27109 18.819C6.8857 20.4918 7.98205 21.8328 9.39206 22.4278L9.97524 21.0458ZM18.012 14.5611C17.7215 16.6488 17.5884 17.5736 17.3209 18.3017L18.7289 18.819C19.0659 17.9017 19.218 16.7777 19.4977 14.7679L18.012 14.5611ZM12.5 22.75C13.8944 22.75 14.8109 22.7642 15.6079 22.4278L15.0248 21.0458C14.5746 21.2358 14.0292 21.25 12.5 21.25V22.75ZM17.3209 18.3017C16.805 19.7058 15.9472 20.6566 15.0248 21.0458L15.6079 22.4278C17.0179 21.8328 18.1143 20.4918 18.7289 18.819L17.3209 18.3017ZM6.72564 12.6761C6.50352 11.08 6.33766 9.88703 6.24664 8.92906L4.75336 9.07094C4.84819 10.069 5.01961 11.2995 5.23996 12.8829L6.72564 12.6761ZM19.76 12.8829C19.9804 11.2995 20.1518 10.069 20.2466 9.07094L18.7534 8.92906C18.6623 9.88702 18.4965 11.08 18.2744 12.6761L19.76 12.8829ZM20.5 6.25H4.5V7.75H20.5V6.25ZM15.75 6V7H17.25V6H15.75ZM16.5 6.25H8.5V7.75H16.5V6.25ZM9.25 7V6H7.75V7H9.25ZM12.5 2.75C14.2949 2.75 15.75 4.20507 15.75 6H17.25C17.25 3.37665 15.1234 1.25 12.5 1.25V2.75ZM12.5 1.25C9.87665 1.25 7.75 3.37665 7.75 6H9.25C9.25 4.20507 10.7051 2.75 12.5 2.75V1.25Z" fill="#DC3545"/>
</svg>
