<svg width="24" height="25" viewBox="0 0 24 25" fill="none" xmlns="http://www.w3.org/2000/svg">
<path d="M20.8906 16.3528L21.5286 16.747L20.8906 16.3528ZM20.6563 16.7614L19.959 16.4853L20.6563 16.7614ZM20.6736 17.5947L21.3996 17.4065L20.6736 17.5947ZM20.589 17.2066L21.3368 17.1488L20.589 17.2066ZM17.1696 21.0986L16.9814 21.8246L17.1696 21.0986ZM16.7812 21.0141L16.8386 20.2663L16.7812 21.0141ZM15.9282 21.3164L16.3241 21.9534L15.9282 21.3164ZM16.3347 21.0821L16.6122 21.7789L16.3347 21.0821ZM19.5094 21.4954L19.3598 20.7605L19.5094 21.4954ZM21.0704 19.9344L20.3354 19.7849L21.0704 19.9344ZM7.85786 13.5329C7.44365 13.5329 7.10786 13.8687 7.10786 14.2829C7.10786 14.6971 7.44365 15.0329 7.85786 15.0329V13.5329ZM15.8579 15.0329C16.2721 15.0329 16.6079 14.6971 16.6079 14.2829C16.6079 13.8687 16.2721 13.5329 15.8579 13.5329V15.0329ZM7.85786 9.53293C7.44365 9.53293 7.10786 9.86872 7.10786 10.2829C7.10786 10.6971 7.44365 11.0329 7.85786 11.0329V9.53293ZM15.8579 11.0329C16.2721 11.0329 16.6079 10.6971 16.6079 10.2829C16.6079 9.86872 16.2721 9.53293 15.8579 9.53293V11.0329ZM5.45926 18.9658C1.84691 15.3534 1.84691 9.49666 5.45926 5.88431L4.3986 4.82365C0.200466 9.02179 0.200466 15.8283 4.3986 20.0264L5.45926 18.9658ZM5.45926 5.88431C9.07161 2.27196 14.9284 2.27196 18.5407 5.88431L19.6014 4.82365C15.4033 0.625515 8.59674 0.625515 4.3986 4.82365L5.45926 5.88431ZM15.5323 20.6794C13.785 21.7653 11.8402 21.9 10.0253 21.4735C8.19937 21.0443 6.54798 20.0545 5.45926 18.9658L4.3986 20.0264C5.67827 21.3061 7.57586 22.4387 9.68213 22.9337C11.7994 23.4313 14.1701 23.292 16.3241 21.9534L15.5323 20.6794ZM18.5407 5.88431C19.5788 6.92234 20.5687 8.57148 21.0093 10.4136C21.4475 12.2452 21.332 14.2118 20.2526 15.9585L21.5286 16.747C22.8653 14.5839 22.9759 12.187 22.4682 10.0646C21.963 7.95263 20.835 6.05727 19.6014 4.82365L18.5407 5.88431ZM20.2526 15.9585C20.1393 16.1417 20.0227 16.3243 19.959 16.4853L21.3536 17.0375C21.3486 17.0502 21.3505 17.0417 21.3832 16.9854C21.4149 16.9311 21.4592 16.8593 21.5286 16.747L20.2526 15.9585ZM21.3996 17.4065C21.3725 17.3021 21.3566 17.2402 21.3459 17.1932C21.3359 17.149 21.3362 17.1416 21.3368 17.1488L19.8413 17.2644C19.8545 17.4354 19.9037 17.6137 19.9475 17.7828L21.3996 17.4065ZM19.959 16.4853C19.8547 16.7486 19.8194 16.982 19.8413 17.2644L21.3368 17.1488C21.3335 17.106 21.3358 17.0929 21.336 17.0918C21.3362 17.0907 21.3378 17.0775 21.3536 17.0375L19.959 16.4853ZM17.3578 20.3726C17.1886 20.3287 17.0101 20.2794 16.8386 20.2663L16.7239 21.7619C16.7166 21.7613 16.724 21.761 16.7682 21.771C16.8152 21.7816 16.877 21.7975 16.9814 21.8246L17.3578 20.3726ZM16.3241 21.9534C16.4356 21.8841 16.5068 21.8399 16.5606 21.8084C16.6162 21.7758 16.6247 21.7739 16.6122 21.7789L16.0572 20.3853C15.896 20.4496 15.7143 20.5663 15.5323 20.6794L16.3241 21.9534ZM16.8386 20.2663C16.5559 20.2446 16.3207 20.2804 16.0572 20.3853L16.6122 21.7789C16.6515 21.7632 16.665 21.7615 16.6666 21.7612C16.6683 21.761 16.6817 21.7587 16.7239 21.7619L16.8386 20.2663ZM16.9814 21.8246C17.6 21.9849 18.1005 22.1151 18.5023 22.1909C18.9006 22.266 19.2871 22.306 19.659 22.2303L19.3598 20.7605C19.2786 20.777 19.1241 20.7817 18.7803 20.7168C18.4399 20.6526 17.997 20.5383 17.3578 20.3726L16.9814 21.8246ZM19.9475 17.7828C20.1132 18.4221 20.2276 18.8649 20.2918 19.2053C20.3566 19.5492 20.352 19.7036 20.3354 19.7849L21.8053 20.084C21.881 19.7122 21.8409 19.3256 21.7658 18.9273C21.69 18.5256 21.5599 18.0251 21.3996 17.4065L19.9475 17.7828ZM19.659 22.2303C20.7402 22.0103 21.5852 21.1653 21.8053 20.084L20.3354 19.7849C20.2354 20.2764 19.8513 20.6605 19.3598 20.7605L19.659 22.2303ZM7.85786 15.0329H15.8579V13.5329H7.85786V15.0329ZM7.85786 11.0329H15.8579V9.53293H7.85786V11.0329Z" fill="#1F1F1F"/>
</svg>
