<svg width="36" height="36" viewBox="0 0 36 36" fill="none" xmlns="http://www.w3.org/2000/svg">
<rect width="36" height="36" rx="18" fill="#EBEBEB"/>
<path d="M11.0611 26.0451L10.6202 26.6518L11.0611 26.0451ZM9.95491 24.9389L9.34815 25.3798H9.34815L9.95491 24.9389ZM26.0451 24.9389L25.4383 24.4981L26.0451 24.9389ZM24.9389 26.0451L24.4981 25.4383L24.9389 26.0451ZM24.9389 9.95491L24.4981 10.5617L24.9389 9.95491ZM26.0451 11.0611L25.4383 11.5019L26.0451 11.0611ZM11.0611 9.95491L11.5019 10.5617L11.0611 9.95491ZM9.95491 11.0611L10.5617 11.5019L9.95491 11.0611ZM11.0034 25.8325L10.2541 25.8016L10.2534 25.8171V25.8325H11.0034ZM24.9905 25.7225L25.7401 25.6969L25.7396 25.6841L25.7388 25.6712L24.9905 25.7225ZM21.25 15C21.25 16.7949 19.7949 18.25 18 18.25V19.75C20.6234 19.75 22.75 17.6234 22.75 15H21.25ZM18 18.25C16.2051 18.25 14.75 16.7949 14.75 15H13.25C13.25 17.6234 15.3766 19.75 18 19.75V18.25ZM14.75 15C14.75 13.2051 16.2051 11.75 18 11.75V10.25C15.3766 10.25 13.25 12.3766 13.25 15H14.75ZM18 11.75C19.7949 11.75 21.25 13.2051 21.25 15H22.75C22.75 12.3766 20.6234 10.25 18 10.25V11.75ZM18 26.25C16.1084 26.25 14.75 26.249 13.698 26.135C12.6601 26.0225 12.0099 25.8074 11.5019 25.4383L10.6202 26.6518C11.4266 27.2377 12.3709 27.5 13.5365 27.6263C14.688 27.751 16.1418 27.75 18 27.75V26.25ZM8.25 18C8.25 19.8582 8.24897 21.312 8.37373 22.4635C8.50001 23.6291 8.76232 24.5734 9.34815 25.3798L10.5617 24.4981C10.1926 23.9901 9.97745 23.3399 9.865 22.302C9.75103 21.25 9.75 19.8916 9.75 18H8.25ZM26.25 18C26.25 19.8916 26.249 21.25 26.135 22.302C26.0225 23.3399 25.8074 23.9901 25.4383 24.4981L26.6518 25.3798C27.2377 24.5734 27.5 23.6291 27.6263 22.4635C27.751 21.312 27.75 19.8582 27.75 18H26.25ZM18 27.75C19.8582 27.75 21.312 27.751 22.4635 27.6263C23.6291 27.5 24.5734 27.2377 25.3798 26.6518L24.4981 25.4383C23.9901 25.8074 23.3399 26.0225 22.302 26.135C21.25 26.249 19.8916 26.25 18 26.25V27.75ZM18 9.75C19.8916 9.75 21.25 9.75103 22.302 9.865C23.3399 9.97745 23.9901 10.1926 24.4981 10.5617L25.3798 9.34815C24.5734 8.76232 23.6291 8.50001 22.4635 8.37373C21.312 8.24897 19.8582 8.25 18 8.25V9.75ZM27.75 18C27.75 16.1418 27.751 14.688 27.6263 13.5365C27.5 12.3709 27.2377 11.4266 26.6518 10.6202L25.4383 11.5019C25.8074 12.0099 26.0225 12.6601 26.135 13.698C26.249 14.75 26.25 16.1084 26.25 18H27.75ZM24.4981 10.5617C24.8589 10.8238 25.1762 11.1411 25.4383 11.5019L26.6518 10.6202C26.2972 10.1321 25.8679 9.70281 25.3798 9.34815L24.4981 10.5617ZM18 8.25C16.1418 8.25 14.688 8.24897 13.5365 8.37373C12.3709 8.50001 11.4266 8.76232 10.6202 9.34815L11.5019 10.5617C12.0099 10.1926 12.6601 9.97745 13.698 9.865C14.75 9.75103 16.1084 9.75 18 9.75V8.25ZM9.75 18C9.75 16.1084 9.75103 14.75 9.865 13.698C9.97745 12.6601 10.1926 12.0099 10.5617 11.5019L9.34815 10.6202C8.76232 11.4266 8.50001 12.3709 8.37373 13.5365C8.24897 14.688 8.25 16.1418 8.25 18H9.75ZM10.6202 9.34815C10.1321 9.70281 9.70281 10.1321 9.34815 10.6202L10.5617 11.5019C10.8238 11.1411 11.1411 10.8238 11.5019 10.5617L10.6202 9.34815ZM15 22.75H21V21.25H15V22.75ZM15 21.25C12.4431 21.25 10.3584 23.27 10.2541 25.8016L11.7528 25.8634C11.8241 24.1321 13.2508 22.75 15 22.75V21.25ZM11.5019 25.4383C11.4855 25.4264 11.4692 25.4144 11.4529 25.4022L10.554 26.603C10.5759 26.6194 10.598 26.6357 10.6202 26.6518L11.5019 25.4383ZM11.4529 25.4022C11.1123 25.1472 10.8119 24.8425 10.5617 24.4981L9.34815 25.3798C9.68667 25.8457 10.0932 26.258 10.554 26.603L11.4529 25.4022ZM10.2534 25.8325V26.0026H11.7534V25.8325H10.2534ZM21 22.75C22.7188 22.75 24.1265 24.0848 24.2423 25.7738L25.7388 25.6712C25.5695 23.2009 23.5129 21.25 21 21.25V22.75ZM25.4383 24.4981C25.1888 24.8415 24.8894 25.1455 24.55 25.4L25.45 26.6C25.9092 26.2556 26.3143 25.8444 26.6518 25.3798L25.4383 24.4981ZM24.55 25.4C24.5328 25.4129 24.5155 25.4257 24.4981 25.4383L25.3798 26.6518C25.4033 26.6347 25.4267 26.6175 25.45 26.6L24.55 25.4ZM24.241 25.7481L24.2504 26.0256L25.7496 25.9744L25.7401 25.6969L24.241 25.7481Z" fill="#C2C2C2"/>
</svg>
