<svg width="24" height="24" viewBox="0 0 24 24" fill="none" xmlns="http://www.w3.org/2000/svg">
<rect width="24" height="24" rx="12" fill="#D6D6D6"/>
<path d="M6.6665 11.2501C6.25229 11.2501 5.9165 11.5859 5.9165 12.0001C5.9165 12.4143 6.25229 12.7501 6.6665 12.7501L6.6665 11.2501ZM17.3332 12.7501C17.7474 12.7501 18.0832 12.4143 18.0832 12.0001C18.0832 11.5859 17.7474 11.2501 17.3332 11.2501V12.7501ZM15.1945 8.13406C14.9003 7.84247 14.4254 7.84459 14.1338 8.13879C13.8422 8.43299 13.8443 8.90786 14.1385 9.19944L15.1945 8.13406ZM15.8418 9.83162L15.3139 10.3643V10.3643L15.8418 9.83162ZM15.8418 14.1685L16.3698 14.7012H16.3698L15.8418 14.1685ZM14.1385 14.8007C13.8443 15.0923 13.8422 15.5672 14.1338 15.8614C14.4254 16.1556 14.9003 16.1577 15.1945 15.8661L14.1385 14.8007ZM17.3199 11.7912L18.0639 11.6964L18.0639 11.6964L17.3199 11.7912ZM17.3199 12.209L18.0639 12.3038V12.3038L17.3199 12.209ZM6.6665 12.7501L17.3332 12.7501V11.2501L6.6665 11.2501L6.6665 12.7501ZM14.1385 9.19944L15.3139 10.3643L16.3698 9.29893L15.1945 8.13406L14.1385 9.19944ZM15.3139 13.6359L14.1385 14.8007L15.1945 15.8661L16.3698 14.7012L15.3139 13.6359ZM15.3139 10.3643C15.795 10.8412 16.1101 11.1551 16.3205 11.4171C16.5214 11.6673 16.5645 11.7965 16.5759 11.886L18.0639 11.6964C18.0031 11.2198 17.7758 10.8337 17.4901 10.4778C17.2138 10.1339 16.8259 9.751 16.3698 9.29893L15.3139 10.3643ZM16.3698 14.7012C16.8259 14.2492 17.2138 13.8663 17.4901 13.5223C17.7758 13.1665 18.0031 12.7804 18.0639 12.3038L16.5759 12.1141C16.5645 12.2037 16.5214 12.3329 16.3205 12.5831C16.1101 12.8451 15.795 13.159 15.3139 13.6359L16.3698 14.7012ZM16.5759 11.886C16.5856 11.9618 16.5856 12.0384 16.5759 12.1141L18.0639 12.3038C18.0896 12.1021 18.0896 11.898 18.0639 11.6964L16.5759 11.886Z" fill="white"/>
</svg>
